<?xml version="1.0" encoding="UTF-8" standalone="no"?>
<!-- Created with Inkscape (http://www.inkscape.org/) -->

<svg
   width="297mm"
   height="190mm"
   viewBox="0 0 297 190"
   version="1.1"
   id="svg1"
   sodipodi:docname="oferta_slajd_1v2.svg"
   inkscape:version="1.3 (0e150ed6c4, 2023-07-21)"
   xml:space="preserve"
   inkscape:export-filename="oferta_slajd1v2.pdf"
   inkscape:export-xdpi="1000"
   inkscape:export-ydpi="1000"
   xmlns:inkscape="http://www.inkscape.org/namespaces/inkscape"
   xmlns:sodipodi="http://sodipodi.sourceforge.net/DTD/sodipodi-0.dtd"
   xmlns="http://www.w3.org/2000/svg"
   xmlns:svg="http://www.w3.org/2000/svg"><sodipodi:namedview
     id="namedview1"
     pagecolor="#ffffff"
     bordercolor="#000000"
     borderopacity="0.25"
     inkscape:showpageshadow="2"
     inkscape:pageopacity="0.0"
     inkscape:pagecheckerboard="0"
     inkscape:deskcolor="#d1d1d1"
     inkscape:document-units="mm"
     inkscape:zoom="0.69934723"
     inkscape:cx="384.64441"
     inkscape:cy="729.96643"
     inkscape:window-width="1920"
     inkscape:window-height="1011"
     inkscape:window-x="0"
     inkscape:window-y="0"
     inkscape:window-maximized="1"
     inkscape:current-layer="layer1" /><defs
     id="defs1"><rect
       x="-222.228"
       y="843.6618"
       width="1581.1724"
       height="246.37132"
       id="rect8" /><rect
       x="330.94339"
       y="810.45715"
       width="32.879623"
       height="210.27107"
       id="rect7" /><inkscape:path-effect
       effect="fillet_chamfer"
       id="path-effect7"
       is_visible="true"
       lpeversion="1"
       nodesatellites_param="F,0,0,1,0,26.458333,0,1 @ F,0,0,1,0,26.458333,0,1 @ F,0,0,1,0,26.458333,0,1 @ F,0,0,1,0,26.458333,0,1"
       radius="100"
       unit="px"
       method="auto"
       mode="F"
       chamfer_steps="1"
       flexible="false"
       use_knot_distance="true"
       apply_no_radius="true"
       apply_with_radius="true"
       only_selected="false"
       hide_knots="false" /><inkscape:path-effect
       effect="fillet_chamfer"
       id="path-effect6"
       is_visible="true"
       lpeversion="1"
       nodesatellites_param="IF,0,0,1,0,1.5875,0,1 @ IF,0,0,1,0,1.5875,0,1 @ IF,0,0,1,0,1.5875,0,1 @ IF,0,0,1,0,1.5875,0,1"
       radius="6"
       unit="px"
       method="auto"
       mode="F"
       chamfer_steps="1"
       flexible="false"
       use_knot_distance="true"
       apply_no_radius="true"
       apply_with_radius="true"
       only_selected="false"
       hide_knots="false" /><rect
       x="170.01184"
       y="582.28644"
       width="299.72433"
       height="48.421444"
       id="rect5" /><rect
       x="175.59044"
       y="518.27301"
       width="301.95676"
       height="41.72913"
       id="rect4" /><path
       id="a"
       d="m 261.602,324.775 h 736.327 v 56.816 H 261.602 Z" /><rect
       x="-222.228"
       y="843.6618"
       width="1581.1724"
       height="246.37132"
       id="rect8-8" /><rect
       x="-222.228"
       y="843.6618"
       width="1581.1724"
       height="246.37132"
       id="rect8-8-2" /><rect
       x="56.982864"
       y="63.926872"
       width="257.58575"
       height="316.45239"
       id="rect1-2" /><rect
       x="28.347656"
       y="280.07812"
       width="173.63281"
       height="52.464844"
       id="rect24" /><path
       id="a-0"
       d="m 261.602,324.775 h 736.327 v 56.816 H 261.602 Z" /><filter
       inkscape:label="Pixellize"
       inkscape:menu="Pixel Tools"
       inkscape:menu-tooltip="Reduce or remove antialiasing around shapes"
       style="color-interpolation-filters:sRGB;"
       id="filter31"
       x="0"
       y="0"
       width="1"
       height="1"><feColorMatrix
         values="1 0 0 0 0 0 1 0 0 0 0 0 1 0 0 0 0 0 1000 -500 "
         id="feColorMatrix31" /></filter><filter
       inkscape:label="Pixellize"
       inkscape:menu="Pixel Tools"
       inkscape:menu-tooltip="Reduce or remove antialiasing around shapes"
       style="color-interpolation-filters:sRGB"
       id="filter31-2"
       x="0"
       y="0"
       width="1"
       height="1"><feColorMatrix
         values="1 0 0 0 0 0 1 0 0 0 0 0 1 0 0 0 0 0 1000 -500 "
         id="feColorMatrix31-3" /></filter><rect
       x="0.42688534"
       y="-117.63703"
       width="151.12265"
       height="84.347832"
       id="rect9-84" /><rect
       x="0.42688534"
       y="-117.63703"
       width="253.50443"
       height="83.334305"
       id="rect9-8" /></defs><g
     inkscape:groupmode="layer"
     id="layer3"
     inkscape:label="Layer 2"><rect
       style="font-variation-settings:'wght' 700;fill:#56aeb5;fill-opacity:1;stroke-width:12.5086"
       id="rect3"
       width="297"
       height="190"
       x="0"
       y="1.0229492e-06" /><rect
       style="font-variation-settings:'wght' 700;fill:#429096;fill-opacity:1.0;stroke-width:3.03452"
       id="rect35"
       width="258.01364"
       height="94.306419"
       x="6.7978907"
       y="52.16951"
       sodipodi:type="rect"
       transform="matrix(1,0,0.08054723,0.9967508,0,0)" /><path
       id="path27-5"
       style="fill:#5682b5;fill-opacity:1;stroke-width:1.37002"
       d="m 60.70998,0 h 48.50561 l 65.51193,189.99998 H 24.03817 Z"
       sodipodi:nodetypes="ccccc" /><path
       id="rect36"
       style="font-variation-settings:'wght' 700;fill:#426996;fill-opacity:1;stroke-width:3.03452"
       d="M 46.471289 52.169436 L 20.732611 146.4758 L 147.75793 146.4758 L 122.94311 52.169436 L 46.471289 52.169436 z "
       transform="matrix(1,0,0.08054723,0.9967508,0,0)" /><path
       id="rect68-9"
       style="fill:#5a56b5;fill-opacity:1;stroke-width:1.37002;filter:url(#filter31-2)"
       d="m 0,0 h 83.68284 l 60.89138,189.99998 H 0 Z"
       sodipodi:nodetypes="ccccc" /><path
       id="path110"
       style="fill:#5682b5;fill-opacity:1;stroke-width:1.54991"
       d="M 185.96333,1.1193991e-6 296.99996,188.00012 V 1.1193991e-6 Z" /><path
       id="path111"
       style="filter:url(#filter31);fill-opacity:1;fill:#5a56b5;stroke:none"
       d="M 192.12719,189.99998 113.89062,86.499317 V 189.99998 Z"
       transform="matrix(-1,0,0,-1.2798498,410.89058,243.17143)" /><path
       id="path34"
       style="filter:url(#filter31-2);fill-opacity:1;fill:#5a56b5;stroke:none"
       d="m 0,0 h 83.68284 l 60.89138,189.99998 H 0 Z"
       sodipodi:nodetypes="ccccc" /><path
       id="path36"
       style="filter:url(#filter31-2);fill-opacity:1.0;fill:#454296;"
       d="M 10.999845 51.999927 L 18.596281 145.99987 L 130.47317 145.99987 L 100.34788 51.999927 L 10.999845 51.999927 z " /><path
       id="rect37"
       style="font-variation-settings:'wght' 700;fill:#426996;fill-opacity:1;stroke-width:3.03452"
       d="M 212.47356 52.169436 L 260.3955 146.4758 L 264.81177 146.4758 L 264.81145 52.169436 L 212.47356 52.169436 z "
       transform="matrix(1,0,0.08054723,0.9967508,0,0)" /></g><g
     inkscape:label="Layer 1"
     inkscape:groupmode="layer"
     id="layer1"><rect
       style="font-variation-settings:'wght' 700;fill:#e6e6e6;fill-opacity:1;stroke-width:3.03452"
       id="rect27"
       width="258.01364"
       height="94.306419"
       x="11.12113"
       y="48.156471"
       sodipodi:type="rect"
       transform="matrix(1,0,0.08054723,0.99675079,0,0)" /><text
       xml:space="preserve"
       transform="matrix(0.51424906,0,0,0.51424906,45.549109,119.03976)"
       id="text6"
       style="font-style:normal;font-variant:normal;font-weight:normal;font-stretch:normal;font-size:58.6667px;font-family:'Harabara Mais Demo';-inkscape-font-specification:'Harabara Mais Demo, Normal';font-variant-ligatures:normal;font-variant-caps:normal;font-variant-numeric:normal;font-variant-east-asian:normal;white-space:pre;shape-inside:url(#rect9-84);display:inline;fill:#429096;fill-opacity:1;stroke-width:4.42874;-inkscape-stroke:none"><tspan
         x="0.42773438"
         y="-65.191444"
         id="tspan5">Linux</tspan></text><text
       xml:space="preserve"
       transform="matrix(0.51424906,0,0,0.51424906,62.060873,141.73452)"
       id="text6-4"
       style="font-style:normal;font-variant:normal;font-weight:normal;font-stretch:normal;font-size:58.6667px;font-family:'Harabara Mais Demo';-inkscape-font-specification:'Harabara Mais Demo, Normal';font-variant-ligatures:normal;font-variant-caps:normal;font-variant-numeric:normal;font-variant-east-asian:normal;white-space:pre;shape-inside:url(#rect9-8);display:inline;fill:#323f49;fill-opacity:1;stroke-width:4.42874;-inkscape-stroke:none"><tspan
         x="0.42773438"
         y="-65.191444"
         id="tspan6">Session</tspan></text><g
       inkscape:groupmode="layer"
       id="layer2"
       inkscape:label="Layer 3"
       transform="matrix(3.3607304,0,0,3.3607489,-526.71131,-213.97109)"><circle
         style="fill:#62a4a9;fill-opacity:1;stroke-width:1.14057;-inkscape-stroke:none"
         id="circle115"
         cx="214.53545"
         cy="48.976917"
         transform="matrix(0.29755437,0,0,0.29755272,155.13048,76.743434)"
         r="33.949814" /><path
         d="m 218.41086,82.15547 c -0.55015,0.0066 -4.99376,0.205885 -6.32283,4.859025 -0.60654,2.123672 -0.68255,2.626703 -0.69546,2.857653 -0.004,0.0092 -0.005,0.375121 -0.0103,0.385033 -2.07706,1.553416 -2.83731,3.718978 -1.9226,6.571203 0,0 0.92872,-2.725341 1.63752,-2.725341 0,0 -0.85232,8.086097 7.79835,7.944627 8.39158,0 7.96495,-7.944627 7.96495,-7.944627 0.84149,0 1.8553,2.837184 1.8553,2.837184 1.60387,-4.326179 -1.51824,-5.910447 -2.19133,-7.044707 -0.006,-0.01098 -0.008,-0.01611 -0.0146,-0.02626 0.0262,-0.116594 -0.11406,-0.745945 -0.8298,-2.854749 -1.68344,-4.963279 -7.21406,-4.859024 -7.21406,-4.859024 0,0 -0.0188,-4.8e-4 -0.0554,0 z"
         style="fill:#111a1b;stroke-width:0.0934994"
         id="path8" /><path
         d="m 225.45121,93.244713 c 0,0 2.44616,-0.286712 3.32948,2.73993 0,0 1.36263,-2.490277 -2.66225,-5.889209 0,0 -0.26168,-8.133901 -8.26606,-7.714168 l -0.10714,15.96875 c 0,0 6.94827,1.595513 7.70602,-5.105303 z"
         style="fill:#323f49;stroke-width:0.032434"
         id="path9"
         sodipodi:nodetypes="ccccccc" /><path
         d="m 212.43387,93.250349 c 0,0 -2.05903,-0.286712 -2.80351,2.73993 0,0 -1.52655,-3.149271 1.98332,-5.685512 0,0 0.56938,-8.374939 7.30812,-7.955242 v 16.006096 c 0,3.1e-5 -5.84975,1.59554 -6.48793,-5.105272 z"
         style="fill:#323f49;stroke-width:0.032434"
         id="path10"
         sodipodi:nodetypes="ccccsc" /><path
         d="m 214.84668,90.731075 c 0,0 6.4881,-0.212615 7.71112,0 0,0 1.91456,1.20256 1.91456,4.925027 0,1.77581 -1.21575,5.072928 -6.0692,5.072928 0,0 -5.20502,-0.25423 -5.20502,-5.072928 0,0 -0.47863,-2.904078 1.64854,-4.925027 z"
         style="fill:#e6ebef;stroke-width:0.032434"
         id="path11" /><path
         d="m 214.84668,90.731075 c 0,0 5.982,-0.27913 7.21923,-0.0946 0,0 2.35984,0.826689 2.35984,4.057288 0,1.033354 -1.02867,4.120848 -5.65533,4.120848 0,0 -5.61383,0.06156 -5.61383,-4.120848 3e-5,0 -0.11332,-2.464822 1.69009,-3.962672 z"
         style="fill:#ffffff;stroke-width:0.032434"
         id="path12" /><path
         d="m 216.78538,90.502177 c 0,0 2.0473,-0.901515 4.09481,0 0,0 -1.60369,2.127313 -2.04751,2.127313 -0.25998,-3e-5 -1.40931,-0.851077 -2.0473,-2.127313 z"
         style="fill:#a9aeb7;stroke-width:0.032434"
         id="path13" /><path
         d="m 216.35565,90.502177 c 0,0 2.04748,-0.901515 4.09492,0 0,0 -1.60378,2.127313 -2.04741,2.127313 -0.25999,-3e-5 -1.40921,-0.851077 -2.04751,-2.127313 z"
         style="fill:#020202;stroke-width:0.032434"
         id="path14" /><path
         d="m 214.56044,85.454406 c 0,0 2.23856,1.041067 3.69084,1.799216 0,0 3.56163,-1.73357 4.57181,-1.73357 0,0 -0.0197,-3.256536 -4.43379,-3.256536 0,-3.7e-5 -3.82886,0.265896 -3.82886,3.19089 z"
         style="fill:#5a6464;stroke-width:0.032434"
         id="path17"
         sodipodi:nodetypes="ccccc" /><path
         d="m 218.57057,86.800664 c -1.15091,0.221766 -2.33965,-1.158686 -4.05632,-1.257848 -1.24688,-0.09339 -2.96411,3.169179 -0.80737,4.722483 1.80595,1.301013 3.45997,0.36482 5.0022,-0.159408 0,0 1.86133,0.945971 3.72082,0.691269 2.56859,-0.351944 2.6642,-5.148751 0.45827,-5.351465 -1.52368,-0.0881 -2.44799,0.961802 -4.3176,1.354969 z"
         style="fill:#10191a;stroke-width:0.032434"
         id="path15"
         transform="translate(2.4796198e-6)"
         sodipodi:nodetypes="ccccccc" /><path
         d="m 218.27772,87.760923 c 0,0 -3.48913,-1.382737 -4.02925,-1.489086 0,0 -1.22813,2.339907 1.03042,3.297081 -3e-5,0 2.14377,0.744559 2.99883,-1.807995 z m 4.9748,-1.539127 c 0,0 -3.52328,1.294327 -3.99686,1.575109 0,0 0.64403,2.562598 2.96559,1.771593 -2e-5,0 2.09406,-0.873198 1.03127,-3.346702 z"
         style="fill:#ffffff;stroke-width:0.032434"
         id="path16"
         transform="translate(2.4796198e-6)" /><path
         d="m 216.55766,90.317596 c 0.0496,-0.140916 0.39919,-0.274204 1.13534,-0.361515 0.73615,-0.08731 1.67503,-0.01845 2.41058,-0.141505 0.3665,0.297566 -0.15013,1.042282 -0.5831,1.556357 -0.44883,0.532908 -0.92683,0.895866 -1.13598,0.895866 -0.24513,0 -1.46596,-0.873108 -1.82684,-1.949203 z"
         style="fill:#efcc00;stroke:#000000;stroke-width:0.00764506"
         id="path18"
         sodipodi:nodetypes="cscssc" /><path
         d="m 217.45672,87.792072 c 0,0.49468 -0.40133,0.895739 -0.89657,0.895739 -0.49445,0 -0.89576,-0.401059 -0.89576,-0.895739 0,-0.494464 0.40135,-0.89594 0.89576,-0.89594 0.49527,0 0.89657,0.401476 0.89657,0.89594 z m 4.50368,0 c 0,0.49468 -0.40131,0.895739 -0.89576,0.895739 -0.49526,0 -0.89659,-0.401059 -0.89659,-0.895739 0,-0.494464 0.40133,-0.89594 0.89659,-0.89594 0.49445,0 0.89576,0.401476 0.89576,0.89594 z"
         style="fill:#10191a;stroke-width:0.032434"
         id="path19" /><path
         d="m 217.5053,87.712604 c 0,0.17055 -0.13791,0.308453 -0.30737,0.308453 -0.17037,7.9e-5 -0.30849,-0.138081 -0.30836,-0.308453 0,-0.170273 0.13795,-0.308186 0.30836,-0.308186 0.16946,0 0.30737,0.137913 0.30737,0.308186 z m 4.19462,-0.307766 c 0,0.170027 -0.13876,0.307766 -0.30835,0.307766 -0.17025,0 -0.30825,-0.137739 -0.30825,-0.307766 0,-0.170796 0.138,-0.308679 0.30825,-0.308679 0.16959,0 0.30835,0.137883 0.30835,0.308679 z m -3.36109,2.77281 c 0,0 -0.89659,0.110995 -1.37518,0.53641 l 1.17239,1.153385 z"
         style="fill:#ffffff;stroke-width:0.032434"
         id="path20"
         sodipodi:nodetypes="sccssssssscccc" /><path
         d="m 211.74901,90.231699 c 0.44088,-0.186182 0.58691,0.138936 0.44907,0.514798 -0.16832,0.702111 -2.64301,2.246112 -2.69618,5.085348 0,0 -0.0623,0.302123 -0.14261,-0.502672 -0.0802,-0.804816 -0.53511,-2.96974 2.38972,-5.097474 z m 14.28715,-0.168082 c 0,0 -0.47249,0.179506 -0.76754,0.604352 -0.29579,0.425211 3.38976,2.32464 3.44772,5.163876 0,0 0.0674,0.302123 0.15542,-0.502672 0.0872,-0.804816 0.35178,-3.137853 -2.8356,-5.265556 z"
         style="fill:#5a6464;stroke-width:0.032434"
         id="path21"
         sodipodi:nodetypes="cccccccccc" /><path
         id="path115"
         style="fill:#444195;fill-opacity:1;stroke-width:1.35108;-inkscape-stroke:none"
         d="M 214.53523,8.7612232 A 40.215706,40.215706 0 0 0 174.3196,48.976856 40.215706,40.215706 0 0 0 214.53523,89.192489 40.215706,40.215706 0 0 0 254.75138,48.976856 40.215706,40.215706 0 0 0 214.53523,8.7612232 Z m 0,6.2657678 A 33.949814,33.949814 0 0 1 248.4851,48.976856 33.949814,33.949814 0 0 1 214.53523,82.926722 33.949814,33.949814 0 0 1 180.58588,48.976856 33.949814,33.949814 0 0 1 214.53523,15.026991 Z"
         transform="matrix(0.29755437,0,0,0.29755272,155.13048,76.743434)" /></g><text
       xml:space="preserve"
       transform="matrix(0.27975708,0,0,0.27975708,42.460942,-21.250428)"
       id="text3"
       style="font-style:normal;font-variant:normal;font-weight:normal;font-stretch:normal;font-size:35.3084px;font-family:Sans;-inkscape-font-specification:'Sans, @wght=700';font-variant-ligatures:normal;font-variant-caps:normal;font-variant-numeric:normal;font-variant-east-asian:normal;font-variation-settings:'wght' 700;white-space:pre;shape-inside:url(#rect4);display:inline;fill:#323f49;fill-opacity:1;stroke-width:12.6236"><tspan
         x="175.58984"
         y="550.39967"
         id="tspan7">20 - 21 April 2024</tspan></text></g><text
     xml:space="preserve"
     style="font-style:normal;font-variant:normal;font-weight:normal;font-stretch:normal;font-size:48px;line-height:1.2;font-family:'Harabara Mais Demo';-inkscape-font-specification:'Harabara Mais Demo, Normal';font-variant-ligatures:normal;font-variant-caps:normal;font-variant-numeric:normal;font-variant-east-asian:normal;text-decoration-color:#000000;letter-spacing:0px;word-spacing:-10px;white-space:pre;inline-size:563.071;display:inline;fill:#429096;fill-opacity:1;stroke-width:3.77953"
     id="text8383"
     x="49.953125"
     y="89.403107"
     transform="matrix(0.26458333,0,0,0.26458333,58.231318,97.582453)"><tspan
       x="49.953125"
       y="89.403107"
       id="tspan8">sesja.linuksowa.pl</tspan></text></svg>
