<?xml version="1.0" encoding="UTF-8" standalone="no"?>
<!-- Created with Inkscape (http://www.inkscape.org/) -->

<svg
   width="297mm"
   height="190mm"
   viewBox="0 0 297 190"
   version="1.1"
   id="svg1"
   sodipodi:docname="oferta_slajd_1.svg"
   inkscape:version="1.3 (0e150ed6c4, 2023-07-21)"
   xml:space="preserve"
   inkscape:export-filename="oferta_test12.png"
   inkscape:export-xdpi="96"
   inkscape:export-ydpi="96"
   xmlns:inkscape="http://www.inkscape.org/namespaces/inkscape"
   xmlns:sodipodi="http://sodipodi.sourceforge.net/DTD/sodipodi-0.dtd"
   xmlns="http://www.w3.org/2000/svg"
   xmlns:svg="http://www.w3.org/2000/svg"><sodipodi:namedview
     id="namedview1"
     pagecolor="#ffffff"
     bordercolor="#000000"
     borderopacity="0.25"
     inkscape:showpageshadow="2"
     inkscape:pageopacity="0.0"
     inkscape:pagecheckerboard="0"
     inkscape:deskcolor="#d1d1d1"
     inkscape:document-units="mm"
     inkscape:zoom="0.57289332"
     inkscape:cx="483.51061"
     inkscape:cy="583.87834"
     inkscape:window-width="1920"
     inkscape:window-height="1011"
     inkscape:window-x="0"
     inkscape:window-y="0"
     inkscape:window-maximized="1"
     inkscape:current-layer="layer3" /><defs
     id="defs1"><rect
       x="-222.228"
       y="843.6618"
       width="1581.1724"
       height="246.37132"
       id="rect8" /><rect
       x="330.94339"
       y="810.45715"
       width="32.879623"
       height="210.27107"
       id="rect7" /><inkscape:path-effect
       effect="fillet_chamfer"
       id="path-effect7"
       is_visible="true"
       lpeversion="1"
       nodesatellites_param="F,0,0,1,0,26.458333,0,1 @ F,0,0,1,0,26.458333,0,1 @ F,0,0,1,0,26.458333,0,1 @ F,0,0,1,0,26.458333,0,1"
       radius="100"
       unit="px"
       method="auto"
       mode="F"
       chamfer_steps="1"
       flexible="false"
       use_knot_distance="true"
       apply_no_radius="true"
       apply_with_radius="true"
       only_selected="false"
       hide_knots="false" /><inkscape:path-effect
       effect="fillet_chamfer"
       id="path-effect6"
       is_visible="true"
       lpeversion="1"
       nodesatellites_param="IF,0,0,1,0,1.5875,0,1 @ IF,0,0,1,0,1.5875,0,1 @ IF,0,0,1,0,1.5875,0,1 @ IF,0,0,1,0,1.5875,0,1"
       radius="6"
       unit="px"
       method="auto"
       mode="F"
       chamfer_steps="1"
       flexible="false"
       use_knot_distance="true"
       apply_no_radius="true"
       apply_with_radius="true"
       only_selected="false"
       hide_knots="false" /><rect
       x="170.01184"
       y="582.28644"
       width="299.72433"
       height="48.421444"
       id="rect5" /><rect
       x="175.59044"
       y="518.27301"
       width="301.95676"
       height="41.72913"
       id="rect4" /><path
       id="a"
       d="m 261.602,324.775 h 736.327 v 56.816 H 261.602 Z" /><rect
       x="-222.228"
       y="843.6618"
       width="1581.1724"
       height="246.37132"
       id="rect8-8" /><rect
       x="-222.228"
       y="843.6618"
       width="1581.1724"
       height="246.37132"
       id="rect8-8-2" /><rect
       x="56.982864"
       y="63.926872"
       width="257.58575"
       height="316.45239"
       id="rect1-2" /><rect
       x="28.347656"
       y="280.07812"
       width="173.63281"
       height="52.464844"
       id="rect24" /><path
       id="a-0"
       d="m 261.602,324.775 h 736.327 v 56.816 H 261.602 Z" /><filter
       inkscape:label="Pixellize"
       inkscape:menu="Pixel Tools"
       inkscape:menu-tooltip="Reduce or remove antialiasing around shapes"
       style="color-interpolation-filters:sRGB;"
       id="filter31"
       x="0"
       y="0"
       width="1"
       height="1"><feColorMatrix
         values="1 0 0 0 0 0 1 0 0 0 0 0 1 0 0 0 0 0 1000 -500 "
         id="feColorMatrix31" /></filter><filter
       inkscape:label="Pixellize"
       inkscape:menu="Pixel Tools"
       inkscape:menu-tooltip="Reduce or remove antialiasing around shapes"
       style="color-interpolation-filters:sRGB"
       id="filter31-2"
       x="0"
       y="0"
       width="1"
       height="1"><feColorMatrix
         values="1 0 0 0 0 0 1 0 0 0 0 0 1 0 0 0 0 0 1000 -500 "
         id="feColorMatrix31-3" /></filter></defs><g
     inkscape:groupmode="layer"
     id="layer3"
     inkscape:label="Layer 2"><rect
       style="font-variation-settings:'wght' 700;fill:#56aeb5;fill-opacity:1;stroke-width:12.5086"
       id="rect3"
       width="297"
       height="190"
       x="0"
       y="1.0229492e-06" /><path
       id="path27-5"
       style="fill:#5682b5;fill-opacity:1;stroke-width:1.37002"
       d="m 60.70998,0 h 48.50561 l 65.51193,189.99998 H 24.03817 Z"
       sodipodi:nodetypes="ccccc" /><path
       id="rect68-9"
       style="fill:#5a56b5;fill-opacity:1;stroke-width:1.37002;filter:url(#filter31-2)"
       d="m 0,0 h 83.68284 l 60.89138,189.99998 H 0 Z"
       sodipodi:nodetypes="ccccc" /><rect
       style="font-variation-settings:'wght' 700;fill:#429096;fill-opacity:1;stroke-width:2.56001"
       id="rect29"
       width="264.50986"
       height="65.470444"
       x="3.4065351"
       y="114.40293"
       sodipodi:type="rect"
       transform="matrix(1,0,0.0838568,0.99647782,0,0)" /><path
       id="path110"
       style="fill:#5682b5;fill-opacity:1;stroke-width:1.54991"
       d="M 185.96333,1.1193991e-6 296.99996,188.00012 V 1.1193991e-6 Z" /><path
       id="path111"
       style="fill:#5a56b5;fill-opacity:1;stroke-width:1.37002;filter:url(#filter31)"
       d="M 192.12719,189.99998 113.89062,86.499317 V 189.99998 Z"
       transform="matrix(-1,0,0,-1.2798498,410.89058,243.17143)" /><path
       id="path112"
       style="fill:#426996;fill-opacity:1;stroke-width:1.37002"
       d="M 38.707198 113.99976 L 26.115202 179.23971 L 171.01747 179.23971 L 148.52272 113.99976 L 38.707198 113.99976 z " /><path
       id="path113"
       style="fill:#454296;fill-opacity:1;stroke-width:1.37002;filter:url(#filter31-2)"
       d="M 13.00024 113.99976 L 18.490344 179.23971 L 141.12575 179.23971 L 120.21747 113.99976 L 13.00024 113.99976 z " /><rect
       style="font-variation-settings:'wght' 700;fill:#e6e6e6;fill-opacity:1;stroke-width:2.56001"
       id="rect6-6"
       width="264.50986"
       height="65.470444"
       x="7.7431474"
       y="110.38881"
       sodipodi:type="rect"
       transform="matrix(1,0,0.0838568,0.99647782,0,0)" /><text
       xml:space="preserve"
       transform="matrix(0.2853025,0,0,0.2853025,85.849958,-124.4482)"
       id="text8"
       style="font-style:normal;font-variant:normal;font-weight:bold;font-stretch:normal;font-size:42.0411px;font-family:Harabara;-inkscape-font-specification:'Harabara, Bold';font-variant-ligatures:normal;font-variant-caps:normal;font-variant-numeric:normal;font-variant-east-asian:normal;white-space:pre;shape-inside:url(#rect8);display:inline;opacity:1;vector-effect:none;fill:#429096;fill-opacity:1;stroke-width:4.42874;stroke-linecap:butt;stroke-linejoin:miter;stroke-miterlimit:4;stroke-dasharray:none;stroke-dashoffset:0;stroke-opacity:1;-inkscape-stroke:none"><tspan
         x="-222.22852"
         y="882.366"
         id="tspan5">Gorace dystrybucje w twojej okolicy.</tspan></text><text
       xml:space="preserve"
       transform="matrix(0.24988323,0,0,0.26458333,83.735052,-86.548705)"
       id="text8-3"
       style="font-style:normal;font-variant:normal;font-weight:bold;font-stretch:normal;font-size:38.4158px;font-family:Harabara;-inkscape-font-specification:'Harabara, Bold';font-variant-ligatures:normal;font-variant-caps:normal;font-variant-numeric:normal;font-variant-east-asian:normal;white-space:pre;shape-inside:url(#rect8-8);display:inline;vector-effect:none;fill:#323f49;fill-opacity:1;stroke-width:4.42874;stroke-linecap:butt;stroke-linejoin:miter;stroke-miterlimit:4;stroke-dasharray:none;stroke-dashoffset:0;stroke-opacity:1;-inkscape-stroke:none"><tspan
         x="-222.22852"
         y="879.02848"
         id="tspan6">Czy Stallman jest szpiegiem Microsoftu?</tspan></text><text
       xml:space="preserve"
       transform="matrix(0.24988323,0,0,0.26458333,85.894786,-67.727372)"
       id="text8-3-6"
       style="font-style:normal;font-variant:normal;font-weight:bold;font-stretch:normal;font-size:38.4158px;font-family:Harabara;-inkscape-font-specification:'Harabara, Bold';font-variant-ligatures:normal;font-variant-caps:normal;font-variant-numeric:normal;font-variant-east-asian:normal;white-space:pre;shape-inside:url(#rect8-8-2);display:inline;vector-effect:none;fill:#323f49;fill-opacity:1;stroke-width:4.42874;stroke-linecap:butt;stroke-linejoin:miter;stroke-miterlimit:4;stroke-dasharray:none;stroke-dashoffset:0;stroke-opacity:1;-inkscape-stroke:none"><tspan
         x="-222.22852"
         y="879.02848"
         id="tspan7">jak pozbyc sie dzieci.</tspan></text><rect
       style="font-variation-settings:'wght' 700;opacity:1;fill:#429096;fill-opacity:1;stroke-width:3.03452"
       id="rect28"
       width="258.01364"
       height="94.306419"
       x="4.0302835"
       y="12.039117"
       sodipodi:type="rect"
       transform="matrix(1,0,0.08054723,0.9967508,0,0)" /><path
       id="path114"
       style="fill:#426996;fill-opacity:1;stroke-width:1.37002"
       d="M 58.393852 11.999784 L 40.250773 106.00025 L 145.76423 106.00025 L 113.35329 11.999784 L 58.393852 11.999784 z " /><path
       id="rect114"
       style="font-variation-settings:'wght' 700;opacity:1;fill:#454296;fill-opacity:1;stroke-width:3.03452"
       d="M 4.0305114 12.038901 L 4.0302718 106.34579 L 109.08794 106.34579 L 86.558807 12.038901 L 4.0305114 12.038901 z "
       transform="matrix(1,0,0.08054723,0.9967508,0,0)" /><path
       id="rect115"
       style="font-variation-settings:'wght' 700;opacity:1;fill:#426996;fill-opacity:1;stroke-width:3.03452"
       d="M 192.08105 12.038901 L 240.00347 106.34579 L 262.04398 106.34579 L 262.0437 12.038901 L 192.08105 12.038901 z "
       transform="matrix(1,0,0.08054723,0.9967508,0,0)" /><rect
       style="font-variation-settings:'wght' 700;opacity:1;fill:#e6e6e6;fill-opacity:1;stroke-width:3.03452"
       id="rect27"
       width="258.01364"
       height="94.306419"
       x="8.3535213"
       y="8.0260782"
       sodipodi:type="rect"
       transform="matrix(1,0,0.08054723,0.99675079,0,0)" /></g><g
     inkscape:groupmode="layer"
     id="layer2"
     inkscape:label="Layer 3"
     transform="matrix(3.3607304,0,0,3.360749,-524.26023,-253.97109)"><circle
       style="fill:#62a4a9;fill-opacity:1;stroke-width:1.14057;-inkscape-stroke:none"
       id="circle115"
       cx="214.53545"
       cy="48.976917"
       transform="matrix(0.29755437,0,0,0.29755272,155.13048,76.743434)"
       r="33.949814" /><path
       d="m 218.41086,82.15547 c -0.55015,0.0066 -4.99376,0.205885 -6.32283,4.859025 -0.60654,2.123672 -0.68255,2.626703 -0.69546,2.857653 -0.004,0.0092 -0.005,0.375121 -0.0103,0.385033 -2.07706,1.553416 -2.83731,3.718978 -1.9226,6.571203 0,0 0.92872,-2.725341 1.63752,-2.725341 0,0 -0.85232,8.086097 7.79835,7.944627 8.39158,0 7.96495,-7.944627 7.96495,-7.944627 0.84149,0 1.8553,2.837184 1.8553,2.837184 1.60387,-4.326179 -1.51824,-5.910447 -2.19133,-7.044707 -0.006,-0.01098 -0.008,-0.01611 -0.0146,-0.02626 0.0262,-0.116594 -0.11406,-0.745945 -0.8298,-2.854749 -1.68344,-4.963279 -7.21406,-4.859024 -7.21406,-4.859024 0,0 -0.0188,-4.8e-4 -0.0554,0 z"
       style="fill:#111a1b;stroke-width:0.0934994"
       id="path8" /><path
       d="m 225.45121,93.244713 c 0,0 2.44616,-0.286712 3.32948,2.73993 0,0 1.36263,-2.490277 -2.66225,-5.889209 0,0 -0.26168,-8.133901 -8.26606,-7.714168 l -0.10714,15.96875 c 0,0 6.94827,1.595513 7.70602,-5.105303 z"
       style="fill:#323f49;stroke-width:0.032434"
       id="path9"
       sodipodi:nodetypes="ccccccc" /><path
       d="m 212.43387,93.250349 c 0,0 -2.05903,-0.286712 -2.80351,2.73993 0,0 -1.52655,-3.149271 1.98332,-5.685512 0,0 0.56938,-8.374939 7.30812,-7.955242 v 16.006096 c 0,3.1e-5 -5.84975,1.59554 -6.48793,-5.105272 z"
       style="fill:#323f49;stroke-width:0.032434"
       id="path10"
       sodipodi:nodetypes="ccccsc" /><path
       d="m 214.84668,90.731075 c 0,0 6.4881,-0.212615 7.71112,0 0,0 1.91456,1.20256 1.91456,4.925027 0,1.77581 -1.21575,5.072928 -6.0692,5.072928 0,0 -5.20502,-0.25423 -5.20502,-5.072928 0,0 -0.47863,-2.904078 1.64854,-4.925027 z"
       style="fill:#e6ebef;stroke-width:0.032434"
       id="path11" /><path
       d="m 214.84668,90.731075 c 0,0 5.982,-0.27913 7.21923,-0.0946 0,0 2.35984,0.826689 2.35984,4.057288 0,1.033354 -1.02867,4.120848 -5.65533,4.120848 0,0 -5.61383,0.06156 -5.61383,-4.120848 3e-5,0 -0.11332,-2.464822 1.69009,-3.962672 z"
       style="fill:#ffffff;stroke-width:0.032434"
       id="path12" /><path
       d="m 216.78538,90.502177 c 0,0 2.0473,-0.901515 4.09481,0 0,0 -1.60369,2.127313 -2.04751,2.127313 -0.25998,-3e-5 -1.40931,-0.851077 -2.0473,-2.127313 z"
       style="fill:#a9aeb7;stroke-width:0.032434"
       id="path13" /><path
       d="m 216.35565,90.502177 c 0,0 2.04748,-0.901515 4.09492,0 0,0 -1.60378,2.127313 -2.04741,2.127313 -0.25999,-3e-5 -1.40921,-0.851077 -2.04751,-2.127313 z"
       style="fill:#020202;stroke-width:0.032434"
       id="path14" /><path
       d="m 214.56044,85.454406 c 0,0 2.23856,1.041067 3.69084,1.799216 0,0 3.56163,-1.73357 4.57181,-1.73357 0,0 -0.0197,-3.256536 -4.43379,-3.256536 0,-3.7e-5 -3.82886,0.265896 -3.82886,3.19089 z"
       style="fill:#5a6464;stroke-width:0.032434"
       id="path17"
       sodipodi:nodetypes="ccccc" /><path
       d="m 218.57057,86.800664 c -1.15091,0.221766 -2.33965,-1.158686 -4.05632,-1.257848 -1.24688,-0.09339 -2.96411,3.169179 -0.80737,4.722483 1.80595,1.301013 3.45997,0.36482 5.0022,-0.159408 0,0 1.86133,0.945971 3.72082,0.691269 2.56859,-0.351944 2.6642,-5.148751 0.45827,-5.351465 -1.52368,-0.0881 -2.44799,0.961802 -4.3176,1.354969 z"
       style="fill:#10191a;stroke-width:0.032434"
       id="path15"
       transform="translate(2.4796198e-6)"
       sodipodi:nodetypes="ccccccc" /><path
       d="m 218.27772,87.760923 c 0,0 -3.48913,-1.382737 -4.02925,-1.489086 0,0 -1.22813,2.339907 1.03042,3.297081 -3e-5,0 2.14377,0.744559 2.99883,-1.807995 z m 4.9748,-1.539127 c 0,0 -3.52328,1.294327 -3.99686,1.575109 0,0 0.64403,2.562598 2.96559,1.771593 -2e-5,0 2.09406,-0.873198 1.03127,-3.346702 z"
       style="fill:#ffffff;stroke-width:0.032434"
       id="path16"
       transform="translate(2.4796198e-6)" /><path
       d="m 216.55766,90.317596 c 0.0496,-0.140916 0.39919,-0.274204 1.13534,-0.361515 0.73615,-0.08731 1.67503,-0.01845 2.41058,-0.141505 0.3665,0.297566 -0.15013,1.042282 -0.5831,1.556357 -0.44883,0.532908 -0.92683,0.895866 -1.13598,0.895866 -0.24513,0 -1.46596,-0.873108 -1.82684,-1.949203 z"
       style="fill:#efcc00;stroke:#000000;stroke-width:0.00764506"
       id="path18"
       sodipodi:nodetypes="cscssc" /><path
       d="m 217.45672,87.792072 c 0,0.49468 -0.40133,0.895739 -0.89657,0.895739 -0.49445,0 -0.89576,-0.401059 -0.89576,-0.895739 0,-0.494464 0.40135,-0.89594 0.89576,-0.89594 0.49527,0 0.89657,0.401476 0.89657,0.89594 z m 4.50368,0 c 0,0.49468 -0.40131,0.895739 -0.89576,0.895739 -0.49526,0 -0.89659,-0.401059 -0.89659,-0.895739 0,-0.494464 0.40133,-0.89594 0.89659,-0.89594 0.49445,0 0.89576,0.401476 0.89576,0.89594 z"
       style="fill:#10191a;stroke-width:0.032434"
       id="path19" /><path
       d="m 217.5053,87.712604 c 0,0.17055 -0.13791,0.308453 -0.30737,0.308453 -0.17037,7.9e-5 -0.30849,-0.138081 -0.30836,-0.308453 0,-0.170273 0.13795,-0.308186 0.30836,-0.308186 0.16946,0 0.30737,0.137913 0.30737,0.308186 z m 4.19462,-0.307766 c 0,0.170027 -0.13876,0.307766 -0.30835,0.307766 -0.17025,0 -0.30825,-0.137739 -0.30825,-0.307766 0,-0.170796 0.138,-0.308679 0.30825,-0.308679 0.16959,0 0.30835,0.137883 0.30835,0.308679 z m -3.36109,2.77281 c 0,0 -0.89659,0.110995 -1.37518,0.53641 l 1.17239,1.153385 z"
       style="fill:#ffffff;stroke-width:0.032434"
       id="path20"
       sodipodi:nodetypes="sccssssssscccc" /><path
       d="m 211.74901,90.231699 c 0.44088,-0.186182 0.58691,0.138936 0.44907,0.514798 -0.16832,0.702111 -2.64301,2.246112 -2.69618,5.085348 0,0 -0.0623,0.302123 -0.14261,-0.502672 -0.0802,-0.804816 -0.53511,-2.96974 2.38972,-5.097474 z m 14.28715,-0.168082 c 0,0 -0.47249,0.179506 -0.76754,0.604352 -0.29579,0.425211 3.38976,2.32464 3.44772,5.163876 0,0 0.0674,0.302123 0.15542,-0.502672 0.0872,-0.804816 0.35178,-3.137853 -2.8356,-5.265556 z"
       style="fill:#5a6464;stroke-width:0.032434"
       id="path21"
       sodipodi:nodetypes="cccccccccc" /><path
       id="path115"
       style="fill:#444195;fill-opacity:1;stroke-width:1.35108;-inkscape-stroke:none"
       d="M 214.53523,8.7612232 A 40.215706,40.215706 0 0 0 174.3196,48.976856 40.215706,40.215706 0 0 0 214.53523,89.192489 40.215706,40.215706 0 0 0 254.75138,48.976856 40.215706,40.215706 0 0 0 214.53523,8.7612232 Z m 0,6.2657678 A 33.949814,33.949814 0 0 1 248.4851,48.976856 33.949814,33.949814 0 0 1 214.53523,82.926722 33.949814,33.949814 0 0 1 180.58588,48.976856 33.949814,33.949814 0 0 1 214.53523,15.026991 Z"
       transform="matrix(0.29755437,0,0,0.29755272,155.13048,76.743434)" /></g><g
     inkscape:label="Layer 1"
     inkscape:groupmode="layer"
     id="layer1"><g
       id="g3"
       transform="matrix(0.74944192,0,0,0.74945659,7.3163456,-18.687456)"
       style="opacity:1"><g
         id="g2"
         transform="matrix(0.23238276,0,0,0.23238276,-34.791334,50.352345)"
         style="fill:#429096;fill-opacity:1"><path
           d="m 277.063,829.186 h 22.788 c 0.22,4.472 1.896,7.822 5.026,10.053 3.35,2.236 7.817,3.352 13.404,3.352 4.02,0 7.482,-0.78 10.389,-2.346 2.68,-1.56 4.02,-3.687 4.02,-6.367 0,-4.02 -4.69,-7.037 -14.073,-9.048 -4.021,-0.67 -7.038,-1.34 -9.048,-2.01 -11.844,-2.9 -19.771,-6.368 -23.792,-10.39 -4.472,-4.02 -6.702,-9.383 -6.702,-16.085 0,-8.487 3.236,-15.524 9.718,-21.11 6.702,-5.138 15.415,-7.709 26.138,-7.709 11.614,0 20.887,2.571 27.814,7.708 6.477,5.587 9.938,12.85 10.388,21.781 h -14.41 c -4.246,0 -7.487,-1.896 -9.717,-5.696 a 677.67,677.67 0 0 1 -2.681,-2.68 c -2.681,-2.012 -6.367,-3.018 -11.06,-3.018 -4.47,0 -7.821,0.671 -10.052,2.011 -2.01,1.341 -3.016,3.352 -3.016,6.032 0,3.576 5.807,6.592 17.425,9.048 1.34,0.45 2.514,0.785 3.519,1.005 1.005,0.226 1.953,0.335 2.848,0.335 11.394,2.906 19.32,6.258 23.792,10.054 4.24,4.021 6.367,9.383 6.367,16.085 0,9.834 -3.576,17.426 -10.723,22.787 -6.702,4.917 -16.755,7.373 -30.16,7.373 -12.734,0 -22.232,-2.565 -28.484,-7.708 -6.482,-5.137 -9.718,-12.618 -9.718,-22.452 z m 153.345,2.011 h 16.755 c -2.461,9.383 -7.153,16.535 -14.075,21.446 -6.927,5.143 -15.64,7.708 -26.138,7.708 -12.734,0 -22.678,-4.132 -29.825,-12.399 -7.152,-8.042 -10.724,-19.546 -10.724,-34.516 0,-14.295 3.46,-25.469 10.389,-33.51 7.147,-8.264 17.09,-12.4 29.824,-12.4 13.404,0 23.793,4.021 31.165,12.063 7.147,8.27 10.724,19.771 10.724,34.517 v 3.687 c 0,1.12 -0.115,1.9 -0.335,2.346 h -57.974 c 0.22,6.927 1.895,12.063 5.026,15.415 2.9,3.576 7.257,5.361 13.069,5.361 3.796,0 7.037,-0.78 9.718,-2.346 0.67,-0.22 1.283,-0.612 1.843,-1.173 l 1.843,-1.843 c 0.22,-0.67 1.058,-1.56 2.513,-2.682 1.453,-1.115 3.52,-1.674 6.202,-1.674 z m -40.213,-26.139 h 34.18 c -0.45,-6.032 -2.01,-10.498 -4.69,-13.404 -2.906,-3.126 -7.037,-4.69 -12.4,-4.69 -4.916,0 -8.937,1.564 -12.063,4.69 -3.132,3.13 -4.807,7.597 -5.027,13.404 z m 68.563,24.128 h 22.788 c 0.22,4.472 1.896,7.822 5.026,10.053 3.35,2.236 7.817,3.352 13.404,3.352 4.02,0 7.482,-0.78 10.389,-2.346 2.68,-1.56 4.02,-3.687 4.02,-6.367 0,-4.02 -4.69,-7.037 -14.073,-9.048 -4.021,-0.67 -7.038,-1.34 -9.048,-2.01 -11.844,-2.9 -19.771,-6.368 -23.792,-10.39 -4.472,-4.02 -6.702,-9.383 -6.702,-16.085 0,-8.487 3.236,-15.524 9.718,-21.11 6.702,-5.138 15.415,-7.709 26.138,-7.709 11.614,0 20.887,2.571 27.814,7.708 6.477,5.587 9.938,12.85 10.388,21.781 h -14.41 c -4.247,0 -7.488,-1.896 -9.718,-5.696 a 677.67,677.67 0 0 1 -2.681,-2.68 c -2.681,-2.012 -6.367,-3.018 -11.06,-3.018 -4.47,0 -7.821,0.671 -10.052,2.011 -2.01,1.341 -3.016,3.352 -3.016,6.032 0,3.576 5.807,6.592 17.425,9.048 1.34,0.45 2.514,0.785 3.519,1.005 1.005,0.226 1.953,0.335 2.848,0.335 11.394,2.906 19.32,6.258 23.792,10.054 4.24,4.021 6.367,9.383 6.367,16.085 0,9.834 -3.576,17.426 -10.723,22.787 -6.702,4.917 -16.755,7.373 -30.16,7.373 -12.734,0 -22.232,-2.565 -28.484,-7.708 -6.482,-5.137 -9.718,-12.618 -9.718,-22.452 v -1.005 z m 83.642,66.686 v -19.437 h 4.357 c 2.01,0 3.35,-0.56 4.02,-1.676 0.89,-0.67 1.34,-2.126 1.34,-4.356 V 769.536 h 12.065 c 3.126,0 5.807,1.12 8.042,3.351 2.23,2.236 3.35,4.917 3.35,8.043 v 93.16 c 0,7.592 -2.235,13.18 -6.701,16.755 -4.472,3.352 -11.844,5.027 -22.117,5.027 z m 9.719,-152.474 h 12.064 c 3.126,0 5.807,1.121 8.042,3.352 2.23,2.235 3.35,4.916 3.35,8.042 v 7.038 H 552.118 V 743.398 Z M 646.15,854.99 a 41.247,41.247 0 0 1 -14.912,4.523 c -5.252,0.555 -9.886,0.838 -13.907,0.838 -8.042,0 -15.08,-2.179 -21.112,-6.535 -6.032,-4.356 -9.048,-11.56 -9.048,-21.614 0,-9.383 2.733,-16.085 8.21,-20.106 5.472,-4.02 12.45,-6.702 20.944,-8.043 1.115,0 2.456,-0.167 4.02,-0.502 1.562,-0.335 3.352,-0.613 5.363,-0.838 9.828,-1.34 14.745,-4.24 14.745,-8.713 0,-3.352 -1.733,-5.529 -5.194,-6.534 -3.466,-1.006 -6.65,-1.509 -9.55,-1.509 -3.131,0 -5.922,0.45 -8.378,1.341 -2.461,0.896 -4.246,2.571 -5.362,5.026 h -22.452 c 0.89,-6.922 4.02,-12.619 9.383,-17.09 6.032,-5.137 14.629,-7.708 25.803,-7.708 12.509,0 21.892,2.126 28.149,6.367 6.477,4.472 9.718,10.724 9.718,18.766 v 30.495 c 0,8.938 -1.623,15.918 -4.86,20.944 -3.24,5.026 -7.093,8.66 -11.56,10.891 z m -5.361,-41.219 c -3.131,1.565 -7.487,3.016 -13.07,4.356 l -7.707,1.676 c -4.021,1.12 -6.927,2.57 -8.713,4.356 -1.565,2.461 -2.346,4.916 -2.346,7.372 0,3.351 1.005,6.032 3.016,8.042 2.01,1.791 4.912,2.682 8.713,2.682 6.252,0 11.168,-1.786 14.745,-5.362 3.57,-3.57 5.36,-8.487 5.36,-14.744 v -8.378 z"
           style="fill:#429096;fill-opacity:1"
           id="path1"
           transform="translate(1.75,-723.398)" /></g><path
         d="m 43.000232,87 h 2.803466 c 0.726429,0 1.349447,0.24702 1.868822,0.7399 0.518214,0.49405 0.778715,1.10359 0.778715,1.83002 v 24.2187 H 43 V 87 Z m 8.323486,0 h 2.803471 c 0.72619,0 1.34921,0.26027 1.86882,0.77894 0.51821,0.51938 0.77871,1.1424 0.77871,1.86883 v 1.63551 h -5.451001 z m 0,6.07402 h 2.803471 c 0.72619,0 1.34921,0.26027 1.86882,0.77848 0.51821,0.51984 0.77871,1.14286 0.77871,1.86929 v 18.0666 h -5.451001 v -20.7146 z m 26.267855,20.71437 h -2.72561 c -0.77895,0 -1.41521,-0.24587 -1.90787,-0.73991 -0.49404,-0.49265 -0.7399,-1.12938 -0.7399,-1.90786 v -10.59085 c 0,-1.2458 -0.37739,-2.15372 -1.12915,-2.72585 -0.75292,-0.57027 -1.59647,-0.85633 -2.53111,-0.85633 -0.934184,0 -1.765424,0.28583 -2.491854,0.85656 -0.72782,0.57167 -1.08987,1.47959 -1.08987,2.72562 v 13.23862 h -5.45147 v -12.14805 c 0,-3.52989 0.92116,-5.89183 2.76442,-7.08651 1.8421,-1.19375 3.8801,-1.84233 6.113074,-1.9469 2.28386,0 4.38646,0.59722 6.3078,1.79121 1.92018,1.19491 2.88154,3.60867 2.88154,7.2422 z M 98.50835,93.07402 v 12.14804 c 0,3.68675 -0.96137,6.10098 -2.88132,7.24221 -1.92134,1.14262 -4.0237,1.71336 -6.3078,1.71336 -2.23273,-0.10458 -4.27096,-0.72643 -6.11306,-1.86906 -1.843487,-1.14123 -2.764417,-3.50433 -2.764417,-7.08651 V 93.07402 h 5.451227 v 13.23861 c 0,1.24557 0.36252,2.15465 1.09011,2.72562 0.72643,0.57166 1.55743,0.85656 2.49184,0.85656 0.93441,0 1.77773,-0.28467 2.53111,-0.85656 0.75176,-0.57073 1.12938,-1.47958 1.12938,-2.72585 V 95.72179 c 0,-0.72643 0.24563,-1.34945 0.73945,-1.86906 0.49288,-0.51821 1.12938,-0.77871 1.90809,-0.77871 z m 8.56307,0 v 7.63145 l 6.61872,-7.63145 h 6.54158 l -7.39814,7.94284 7.47576,12.77153 h -6.54135 l -3.81572,-7.00867 c -0.77848,-1.4015 -1.45402,-1.99779 -2.02475,-1.79097 -0.57166,0.20821 -0.85657,0.51937 -0.85657,0.93418 v 7.86522 h -5.45123 V 87 h 2.80323 c 0.72643,0 1.34968,0.26027 1.86906,0.77894 0.51821,0.51938 0.77894,1.11707 0.77894,1.79098 v 3.5041 z m 14.65313,13.86163 h 5.2953 c 0.0511,1.03922 0.4406,1.8177 1.16819,2.33614 0.77848,0.51961 1.81654,0.77895 3.11486,0.77895 0.93418,0 1.73869,-0.18126 2.41399,-0.54517 0.62279,-0.36275 0.93418,-0.85679 0.93418,-1.47958 0,-0.93441 -1.08988,-1.63528 -3.27032,-2.1026 -0.93441,-0.1557 -1.63528,-0.31162 -2.1026,-0.46732 -2.75258,-0.67391 -4.59444,-1.47958 -5.52909,-2.41446 -1.03921,-0.93418 -1.55742,-2.18021 -1.55742,-3.73764 0,-1.97223 0.75199,-3.60751 2.25829,-4.90583 1.55743,-1.19375 3.58218,-1.79121 6.07425,-1.79121 2.69867,0 4.85378,0.59722 6.4635,1.79121 1.50514,1.29832 2.30942,2.98588 2.41399,5.06129 h -3.34864 c -0.98669,0 -1.73961,-0.44036 -2.25829,-1.32342 -0.20798,-0.20705 -0.41597,-0.41503 -0.62302,-0.62302 -0.62302,-0.46732 -1.47958,-0.70109 -2.57015,-0.70109 -1.03899,0 -1.81747,0.15569 -2.33591,0.46708 -0.46733,0.31186 -0.7011,0.77918 -0.7011,1.40197 0,0.831 1.34968,1.53187 4.0495,2.1026 0.31139,0.10457 0.58421,0.18242 0.81775,0.23354 0.23378,0.0525 0.45385,0.0779 0.66206,0.0779 2.64777,0.67531 4.48964,1.45425 5.52909,2.33638 0.9853,0.93418 1.47958,2.18045 1.47958,3.73787 0,2.28526 -0.831,4.04951 -2.49208,5.29531 -1.55743,1.14263 -3.8938,1.71336 -7.00866,1.71336 -2.95893,0 -5.16633,-0.59606 -6.61919,-1.79121 -1.50607,-1.19375 -2.2583,-2.9322 -2.2583,-5.21746 v -0.23354 z m 24.05928,4.98368 c -1.09011,-0.93441 -1.86905,-2.19253 -2.33638,-3.77668 -0.46709,-1.583 -0.70086,-3.23175 -0.70086,-4.94511 0,-1.4015 0.19473,-2.80323 0.58421,-4.2052 0.38924,-1.4015 0.99901,-2.57015 1.83001,-3.50433 1.34945,-1.5572 3.08814,-2.47836 5.21746,-2.76419 2.12793,-0.2849 4.0495,-0.11689 5.76263,0.50613 1.97223,0.77894 3.42648,2.12932 4.36089,4.0495 0.88236,1.71312 1.32389,3.71255 1.32389,5.9964 0,1.66201 -0.18242,3.0893 -0.54517,4.28282 -0.36368,1.19514 -0.831,2.2074 -1.40174,3.03724 -1.2458,1.71313 -2.83019,2.7779 -4.75013,3.19271 -1.71313,0.46709 -3.43996,0.50613 -5.17842,0.11689 -1.74008,-0.38971 -3.12834,-1.05154 -4.16639,-1.98618 z m 3.73788,-13.70547 c -1.09011,1.19491 -1.58416,2.97264 -1.47958,5.33435 0.10341,2.36286 0.54517,4.01046 1.32388,4.94487 0.31139,0.41596 0.8568,0.76663 1.63528,1.05107 0.77895,0.28583 1.56974,0.31139 2.37518,0.0778 0.80428,-0.23354 1.51862,-0.81798 2.14164,-1.75216 0.62302,-0.93418 0.95997,-2.43956 1.01226,-4.51659 0,-1.86906 -0.29931,-3.27056 -0.8956,-4.2052 -0.59723,-0.93441 -1.28461,-1.53071 -2.06356,-1.79121 -0.77872,-0.2591 -1.55743,-0.27258 -2.33638,-0.0388 -0.77848,0.23378 -1.35037,0.53309 -1.71312,0.89584 z m 35.77393,15.57453 h -5.451 l -3.19271,-14.79605 -3.19271,14.79581 h -5.45123 l -5.68478,-20.71413 h 5.2953 l 3.27079,14.32872 2.95893,-14.32872 h 5.52908 l 2.80324,14.32872 2.88154,-12.45967 c 0.3114,-1.24603 1.141,-1.86905 2.49184,-1.86905 h 3.42626 z m 20.74992,-0.85657 a 9.5862536,9.5862536 0 0 1 -3.46576,1.0513 c -1.22001,0.12897 -2.29733,0.19474 -3.23151,0.19474 -1.86906,0 -3.50433,-0.5066 -4.90607,-1.51862 -1.40173,-1.01226 -2.1026,-2.68658 -2.1026,-5.02272 0,-2.18045 0.63511,-3.73788 1.90787,-4.67229 1.2716,-0.93441 2.8934,-1.55743 4.86702,-1.86906 0.25911,0 0.57073,-0.0388 0.93441,-0.11665 0.36275,-0.0778 0.77872,-0.14245 1.24581,-0.19474 2.28385,-0.31162 3.42648,-0.985534 3.42648,-2.02475 0,-0.77895 -0.40272,-1.28508 -1.207,-1.51839 -0.80543,-0.23378 -1.54511,-0.3509 -2.21925,-0.3509 -0.72782,0 -1.3764,0.10458 -1.9469,0.31186 -0.57167,0.20822 -0.98693,0.59722 -1.24604,1.16796 h -5.21746 c 0.20706,-1.60856 0.93441,-2.93267 2.18045,-3.97142 1.40173,-1.19375 3.39976,-1.79121 5.9964,-1.79121 2.90711,0 5.08733,0.49404 6.54158,1.47958 1.50491,1.03922 2.25806,2.49207 2.25806,4.36089 v 7.08652 c 0,2.07703 -0.37715,3.69907 -1.12915,4.86702 -0.75338,1.16796 -1.64898,2.01244 -2.68634,2.53065 z m -1.2465,-9.57835 c -0.72736,0.36368 -1.73985,0.70087 -3.03701,1.01226 l -1.79098,0.38947 c -0.93417,0.26027 -1.60994,0.59723 -2.02475,1.01226 -0.36368,0.57166 -0.54517,1.1424 -0.54517,1.71313 0,0.77848 0.23355,1.40173 0.70087,1.86882 0.46732,0.41596 1.14146,0.62325 2.02475,0.62325 1.45286,0 2.59572,-0.41504 3.42648,-1.24604 0.82961,-0.8296 1.24581,-1.97223 1.24581,-3.42625 z"
         style="fill:#323f49;fill-opacity:1;stroke-width:0.232383"
         id="path2" /></g><g
       aria-label="25 kwietnia 2020 | Wrocław, Polska"
       style="font-style:normal;font-weight:400;font-size:5px;line-height:125%;font-family:sans-serif;letter-spacing:0;word-spacing:0;display:inline;fill:#000000;fill-opacity:1;stroke:none;stroke-width:1px;stroke-linecap:butt;stroke-linejoin:miter;stroke-opacity:1"
       id="g24"
       transform="matrix(0.23238276,0,0,0.23238276,15.55248,78.514308)"><g
         aria-label="22-23 kwietnia 2023 | Wrocław, Polska"
         style="font-size:40px;white-space:pre;shape-inside:url(#a);shape-padding:0.0876788;fill:#ff2a2a"
         transform="translate(-0.698,-23.509)"
         id="g23" /></g><text
       xml:space="preserve"
       transform="matrix(0.27975708,0,0,0.27975708,36.767212,-69.467101)"
       id="text3"
       style="font-style:normal;font-variant:normal;font-weight:normal;font-stretch:normal;font-size:26.6667px;font-family:Sans;-inkscape-font-specification:'Sans, @wght=700';font-variant-ligatures:normal;font-variant-caps:normal;font-variant-numeric:normal;font-variant-east-asian:normal;font-variation-settings:'wght' 700;white-space:pre;shape-inside:url(#rect4);display:inline;opacity:1;fill:#323f49;fill-opacity:1;stroke-width:12.6236"><tspan
         x="175.58984"
         y="542.53681"
         id="tspan8">Data i inne pierdolety </tspan></text></g></svg>
