<?xml version="1.0" encoding="UTF-8" standalone="no"?>
<!-- Created with Inkscape (http://www.inkscape.org/) -->

<svg
   width="297mm"
   height="190mm"
   viewBox="0 0 297 190"
   version="1.1"
   id="svg1"
   sodipodi:docname="oferta_slajd_6.svg"
   inkscape:version="1.3 (0e150ed6c4, 2023-07-21)"
   xml:space="preserve"
   inkscape:export-filename="oferta_slajd6.png"
   inkscape:export-xdpi="300"
   inkscape:export-ydpi="300"
   xmlns:inkscape="http://www.inkscape.org/namespaces/inkscape"
   xmlns:sodipodi="http://sodipodi.sourceforge.net/DTD/sodipodi-0.dtd"
   xmlns="http://www.w3.org/2000/svg"
   xmlns:svg="http://www.w3.org/2000/svg"><sodipodi:namedview
     id="namedview1"
     pagecolor="#ffffff"
     bordercolor="#000000"
     borderopacity="0.25"
     inkscape:showpageshadow="2"
     inkscape:pageopacity="0.0"
     inkscape:pagecheckerboard="0"
     inkscape:deskcolor="#d1d1d1"
     inkscape:document-units="mm"
     inkscape:zoom="0.48685115"
     inkscape:cx="482.69373"
     inkscape:cy="270.10309"
     inkscape:window-width="1920"
     inkscape:window-height="1011"
     inkscape:window-x="0"
     inkscape:window-y="0"
     inkscape:window-maximized="1"
     inkscape:current-layer="layer3" /><defs
     id="defs1"><rect
       x="98.92264"
       y="162.13078"
       width="516.98357"
       height="134.90384"
       id="rect32" /><inkscape:path-effect
       effect="fillet_chamfer"
       id="path-effect26"
       is_visible="true"
       lpeversion="1"
       nodesatellites_param="F,0,0,1,0,1.0583333,0,1 @ F,0,0,1,0,1.0583333,0,1 @ F,0,0,1,0,1.0583333,0,1 @ F,0,0,1,0,1.0583333,0,1"
       radius="4"
       unit="px"
       method="auto"
       mode="F"
       chamfer_steps="1"
       flexible="false"
       use_knot_distance="true"
       apply_no_radius="true"
       apply_with_radius="true"
       only_selected="false"
       hide_knots="false" /><inkscape:perspective
       sodipodi:type="inkscape:persp3d"
       inkscape:vp_x="0 : 82.337018 : 1"
       inkscape:vp_y="0 : 1000 : 0"
       inkscape:vp_z="297 : 82.337018 : 1"
       inkscape:persp3d-origin="148.5 : 50.670351 : 1"
       id="perspective17" /><rect
       x="50.86497"
       y="156.20822"
       width="421.38158"
       height="115.49739"
       id="rect48" /><inkscape:path-effect
       effect="fillet_chamfer"
       id="path-effect47"
       is_visible="true"
       lpeversion="1"
       nodesatellites_param="F,0,0,1,0,0.26458333,0,1 @ F,0,0,1,0,0.26458333,0,1 @ F,0,0,1,0,0.26458333,0,1 @ F,0,0,1,0,0.26458333,0,1"
       radius="10"
       unit="px"
       method="auto"
       mode="F"
       chamfer_steps="1"
       flexible="false"
       use_knot_distance="true"
       apply_no_radius="true"
       apply_with_radius="true"
       only_selected="false"
       hide_knots="false" /><inkscape:path-effect
       effect="fillet_chamfer"
       id="path-effect45"
       is_visible="true"
       lpeversion="1"
       nodesatellites_param="F,0,0,1,0,0.26458333,0,1 @ F,0,0,1,0,0.26458333,0,1 @ F,0,0,1,0,0.26458333,0,1 @ F,0,0,1,0,0.26458333,0,1"
       radius="10"
       unit="px"
       method="auto"
       mode="F"
       chamfer_steps="1"
       flexible="false"
       use_knot_distance="true"
       apply_no_radius="true"
       apply_with_radius="true"
       only_selected="false"
       hide_knots="false" /><inkscape:path-effect
       effect="fillet_chamfer"
       id="path-effect25"
       is_visible="true"
       lpeversion="1"
       nodesatellites_param="F,0,0,1,0,0,0,1 @ F,0,0,1,0,0,0,1 @ F,0,0,1,0,0,0,1 @ F,0,0,1,0,0,0,1"
       radius="10"
       unit="px"
       method="auto"
       mode="F"
       chamfer_steps="1"
       flexible="false"
       use_knot_distance="true"
       apply_no_radius="true"
       apply_with_radius="true"
       only_selected="false"
       hide_knots="false" /><inkscape:path-effect
       effect="fillet_chamfer"
       id="path-effect20"
       is_visible="true"
       lpeversion="1"
       nodesatellites_param="F,0,0,1,0,0,0,1 @ F,0,0,1,0,0,0,1 @ F,0,0,1,0,0,0,1 @ F,0,0,1,0,0,0,1"
       radius="100"
       unit="px"
       method="auto"
       mode="F"
       chamfer_steps="1"
       flexible="false"
       use_knot_distance="true"
       apply_no_radius="true"
       apply_with_radius="true"
       only_selected="false"
       hide_knots="false" /><inkscape:path-effect
       effect="fillet_chamfer"
       id="path-effect16"
       is_visible="true"
       lpeversion="1"
       nodesatellites_param="F,0,0,1,0,0.26458333,0,1 @ F,0,0,1,0,0.26458333,0,1 @ F,0,0,1,0,0.26458333,0,1 @ F,0,0,1,0,0.26458333,0,1"
       radius="10"
       unit="px"
       method="auto"
       mode="F"
       chamfer_steps="1"
       flexible="false"
       use_knot_distance="true"
       apply_no_radius="true"
       apply_with_radius="true"
       only_selected="false"
       hide_knots="false" /><inkscape:path-effect
       effect="fillet_chamfer"
       id="path-effect15"
       is_visible="true"
       lpeversion="1"
       nodesatellites_param="F,0,0,1,0,1.3229167,0,1 @ F,0,0,1,0,1.3229167,0,1 @ F,0,0,1,0,1.3229167,0,1 @ F,0,0,1,0,1.3229167,0,1"
       radius="10"
       unit="px"
       method="auto"
       mode="F"
       chamfer_steps="1"
       flexible="false"
       use_knot_distance="true"
       apply_no_radius="true"
       apply_with_radius="false"
       only_selected="false"
       hide_knots="false" /><rect
       x="-222.228"
       y="843.6618"
       width="1581.1724"
       height="246.37132"
       id="rect8" /><rect
       x="330.94339"
       y="810.45715"
       width="32.879623"
       height="210.27107"
       id="rect7" /><inkscape:path-effect
       effect="fillet_chamfer"
       id="path-effect7"
       is_visible="true"
       lpeversion="1"
       nodesatellites_param="F,0,0,1,0,26.458333,0,1 @ F,0,0,1,0,26.458333,0,1 @ F,0,0,1,0,26.458333,0,1 @ F,0,0,1,0,26.458333,0,1"
       radius="100"
       unit="px"
       method="auto"
       mode="F"
       chamfer_steps="1"
       flexible="false"
       use_knot_distance="true"
       apply_no_radius="true"
       apply_with_radius="true"
       only_selected="false"
       hide_knots="false" /><inkscape:path-effect
       effect="fillet_chamfer"
       id="path-effect6"
       is_visible="true"
       lpeversion="1"
       nodesatellites_param="IF,0,0,1,0,1.5875,0,1 @ IF,0,0,1,0,1.5875,0,1 @ IF,0,0,1,0,1.5875,0,1 @ IF,0,0,1,0,1.5875,0,1"
       radius="6"
       unit="px"
       method="auto"
       mode="F"
       chamfer_steps="1"
       flexible="false"
       use_knot_distance="true"
       apply_no_radius="true"
       apply_with_radius="true"
       only_selected="false"
       hide_knots="false" /><rect
       x="170.01184"
       y="582.28644"
       width="299.72433"
       height="48.421444"
       id="rect5" /><rect
       x="175.59044"
       y="518.27301"
       width="301.95676"
       height="41.72913"
       id="rect4" /><path
       id="a"
       d="m 261.602,324.775 h 736.327 v 56.816 H 261.602 Z" /><rect
       x="-222.228"
       y="843.6618"
       width="1581.1724"
       height="246.37132"
       id="rect8-8" /><rect
       x="-222.228"
       y="843.6618"
       width="1581.1724"
       height="246.37132"
       id="rect8-8-2" /><rect
       x="56.982864"
       y="63.926872"
       width="257.58575"
       height="316.45239"
       id="rect1-2" /><rect
       x="28.347656"
       y="280.07812"
       width="173.63281"
       height="52.464844"
       id="rect24" /><path
       id="a-0"
       d="m 261.602,324.775 h 736.327 v 56.816 H 261.602 Z" /><filter
       inkscape:label="Pixellize"
       inkscape:menu="Pixel Tools"
       inkscape:menu-tooltip="Reduce or remove antialiasing around shapes"
       style="color-interpolation-filters:sRGB;"
       id="filter31"
       x="0"
       y="0"
       width="1"
       height="1"><feColorMatrix
         values="1 0 0 0 0 0 1 0 0 0 0 0 1 0 0 0 0 0 1000 -500 "
         id="feColorMatrix31" /></filter><filter
       inkscape:label="Pixellize"
       inkscape:menu="Pixel Tools"
       inkscape:menu-tooltip="Reduce or remove antialiasing around shapes"
       style="color-interpolation-filters:sRGB"
       id="filter31-2"
       x="0"
       y="0"
       width="1"
       height="1"><feColorMatrix
         values="1 0 0 0 0 0 1 0 0 0 0 0 1 0 0 0 0 0 1000 -500 "
         id="feColorMatrix31-3" /></filter><rect
       x="98.92264"
       y="162.13078"
       width="690.14273"
       height="132.52086"
       id="rect33" /><rect
       x="98.92264"
       y="162.13078"
       width="551.19979"
       height="129.27535"
       id="rect34" /></defs><g
     inkscape:groupmode="layer"
     id="layer3"
     inkscape:label="Layer 2"><rect
       style="font-variation-settings:'wght' 700;fill:#56aeb5;fill-opacity:1;stroke-width:12.5086"
       id="rect3"
       width="297"
       height="190"
       x="0"
       y="-3.5969961e-06" /><path
       id="path27-5"
       style="fill:#5682b5;fill-opacity:1;stroke-width:1.37002"
       d="m 31.164428,-8.855785e-6 h 48.50561 L 145.18197,189.99997 H 0 Z"
       sodipodi:nodetypes="ccccc" /><path
       id="rect68-9"
       style="fill:#5a56b5;fill-opacity:1;stroke-width:1.37002;filter:url(#filter31-2)"
       d="M 0,-8.8557851e-6 H 54.137288 L 115.02867,189.99997 H 0 Z"
       sodipodi:nodetypes="ccccc" /><path
       id="path110"
       style="fill:#5682b5;fill-opacity:1;stroke-width:1.54991"
       d="M 185.96333,-8.855785e-6 296.99996,188.00011 V -8.855785e-6 Z" /><path
       id="path111"
       style="fill:#5a56b5;fill-opacity:1;stroke-width:1.37002;filter:url(#filter31)"
       d="M 192.12719,189.99998 113.89062,86.499317 V 189.99998 Z"
       transform="matrix(-1,0,0,-1.2798498,410.89058,243.17142)" /><rect
       style="font-variation-settings:'wght' 700;fill:#429096;fill-opacity:1;stroke-width:0.938922"
       id="rect2"
       width="119.52998"
       height="19.488882"
       x="2.4598587"
       y="12.098431"
       sodipodi:type="rect"
       transform="matrix(1,0,0.12730093,0.99186415,0,0)" /><path
       id="rect9"
       style="font-variation-settings:'wght' 700;fill:#426996;fill-opacity:1;stroke-width:0.938922"
       d="M 27.656037 12.098214 L 22.004699 31.587378 L 86.451411 31.587378 L 82.267691 12.098214 L 27.656037 12.098214 z "
       transform="matrix(1,0,0.12730093,0.99186415,0,0)" /><rect
       style="font-variation-settings:'wght' 700;fill:#429096;fill-opacity:1;stroke-width:1.81334"
       id="rect19"
       width="196.6377"
       height="44.187248"
       x="8.7663107"
       y="90.215141"
       sodipodi:type="rect"
       transform="matrix(1,0,0.06909807,0.99760987,0,0)" /><path
       id="rect6"
       style="font-variation-settings:'wght' 700;fill:#454296;fill-opacity:1.0;stroke-width:0.938922"
       d="M 2.459642 12.098214 L 2.4596388 31.587378 L 60.156892 31.587378 L 56.44291 12.098214 L 2.459642 12.098214 z "
       transform="matrix(1,0,0.12730093,0.99186415,0,0)" /><rect
       style="font-variation-settings:'wght' 700;fill:#e6e6e6;fill-opacity:1;stroke-width:0.938922"
       id="rect1"
       width="119.52998"
       height="19.488882"
       x="6.9732389"
       y="8.0656214"
       sodipodi:type="rect"
       transform="matrix(1,0,0.12730093,0.99186414,0,0)" /><rect
       style="font-variation-settings:'wght' 700;fill:#429096;fill-opacity:1;stroke-width:1.56974"
       id="rect21"
       width="147.50711"
       height="44.14109"
       x="12.921674"
       y="40.053936"
       sodipodi:type="rect"
       transform="matrix(1,0,0.05188789,0.99865292,0,0)" /><path
       id="rect27"
       style="font-variation-settings:'wght' 700;fill:#426996;fill-opacity:1;stroke-width:1.56974"
       d="M 22.525344 40.054098 L 13.004393 84.195107 L 104.29288 84.195107 L 91.383673 40.054098 L 22.525344 40.054098 z "
       transform="matrix(1,0,0.05188789,0.99865291,0,0)" /><path
       id="rect26"
       style="font-variation-settings:'wght' 700;fill:#454296;fill-opacity:1;stroke-width:1.56974"
       d="M 12.921795 40.054098 L 12.921711 84.195107 L 76.715233 84.195107 L 64.878314 40.054098 L 12.921795 40.054098 z "
       transform="matrix(1,0,0.05188789,0.99865291,0,0)" /><rect
       style="font-variation-settings:'wght' 700;fill:#429096;fill-opacity:1;stroke-width:2.05704"
       id="rect23"
       width="252.64876"
       height="44.255829"
       x="2.5409729"
       y="140.55328"
       sodipodi:type="rect"
       transform="matrix(1,0,0.08864265,0.99606349,0,0)" /><path
       id="rect29"
       style="font-variation-settings:'wght' 700;fill:#426996;fill-opacity:1;stroke-width:1.81334"
       d="M 10.168913 90.215301 L 8.7665831 96.240705 L 8.766211 134.40246 L 116.61441 134.40246 L 104.46807 90.215301 L 10.168913 90.215301 z "
       transform="matrix(1,0,0.06909807,0.99760987,0,0)" /><path
       id="rect28"
       style="font-variation-settings:'wght' 700;fill:#454296;fill-opacity:1;stroke-width:1.81334"
       d="M 8.7664148 90.215301 L 8.766211 134.40246 L 87.820817 134.40246 L 76.746762 90.215301 L 8.7664148 90.215301 z "
       transform="matrix(1,0,0.06909807,0.99760987,0,0)" /><rect
       style="font-variation-settings:'wght' 700;fill:#e6e6e6;fill-opacity:1;stroke-width:1.56974"
       id="rect10"
       width="147.50711"
       height="44.14109"
       x="17.129499"
       y="36.04855"
       sodipodi:type="rect"
       transform="matrix(1,0,0.05188789,0.99865292,0,0)" /><path
       id="rect31"
       style="font-variation-settings:'wght' 700;fill:#426996;fill-opacity:1;stroke-width:2.05704"
       d="M 2.5410806 140.55353 L 2.5408907 184.80929 L 126.75915 184.80929 L 115.48302 140.55353 L 2.5410806 140.55353 z "
       transform="matrix(1,0,0.08864265,0.99606349,0,0)" /><path
       id="path31"
       style="fill:#454296;fill-opacity:1;stroke-width:1.37002;filter:url(#filter31-2)"
       d="M 15.000118 140.00024 L 18.922876 184.08179 L 113.13211 184.08179 L 99.00481 140.00024 L 15.000118 140.00024 z " /><rect
       style="font-variation-settings:'wght' 700;fill:#e6e6e6;fill-opacity:1;stroke-width:1.81334"
       id="rect11"
       width="196.6377"
       height="44.187248"
       x="13.043319"
       y="86.206032"
       sodipodi:type="rect"
       transform="matrix(1,0,0.06909807,0.99760987,0,0)" /><rect
       style="font-variation-settings:'wght' 700;fill:#e6e6e6;fill-opacity:1;stroke-width:2.05704"
       id="rect12"
       width="252.64876"
       height="44.255829"
       x="6.8969603"
       y="136.53748"
       sodipodi:type="rect"
       transform="matrix(1,0,0.08864265,0.99606349,0,0)" /><g
       id="g25"
       transform="matrix(1.5380436,0,0,1.5380436,-333.16845,55.985663)"><path
         style="fill:#e6e6e6;fill-opacity:1;stroke:#000000;stroke-width:1.03463;stroke-opacity:0;-inkscape-stroke:none"
         id="rect25"
         width="52.693913"
         height="21.607168"
         x="334.90839"
         y="55.101139"
         inkscape:path-effect="#path-effect26"
         sodipodi:type="rect"
         d="m 335.96672,55.101139 h 50.57725 a 1.0583333,1.0583333 45 0 1 1.05833,1.058333 l 0,19.490502 a 1.0583333,1.0583333 135 0 1 -1.05833,1.058333 h -50.57725 a 1.0583333,1.0583333 45 0 1 -1.05833,-1.058333 V 56.159472 a 1.0583333,1.0583333 135 0 1 1.05833,-1.058333 z" /><g
         transform="matrix(0.24318984,0,0,0.2159323,297.353,-89.267421)"
         fill-rule="evenodd"
         id="g9"><rect
           width="21.555"
           height="76.591003"
           x="155.722"
           y="691.02197"
           ry="7.0739999"
           rx="7.0739999"
           fill="#863601"
           id="rect1-3" /><rect
           width="21.555"
           height="22"
           x="181.08"
           y="720.25403"
           ry="7.0739999"
           rx="7.0739999"
           fill="#9a3d00"
           id="rect2-6" /><rect
           width="21.555"
           height="59.133999"
           x="669.98199"
           y="-329.89301"
           ry="7.0739999"
           rx="7.0739999"
           transform="rotate(90)"
           fill="#d65502"
           id="rect3-7" /><rect
           rx="7.0739999"
           ry="7.0739999"
           y="683.01202"
           x="206.439"
           height="84.600998"
           width="21.555"
           fill="#ae4502"
           id="rect4-5" /><rect
           transform="rotate(90)"
           rx="7.0739999"
           ry="7.0739999"
           y="-303.612"
           x="695.34003"
           height="59.133999"
           width="21.555"
           fill="#c24d02"
           id="rect5-3" /><rect
           width="21.555"
           height="59.133999"
           x="746.05798"
           y="-303.612"
           ry="7.0739999"
           rx="7.0739999"
           transform="rotate(90)"
           fill="#c24d01"
           id="rect6-5" /><rect
           transform="rotate(90)"
           rx="7.0739999"
           ry="7.0739999"
           y="-329.89301"
           x="720.69897"
           height="59.133999"
           width="21.555"
           fill="#d65502"
           id="rect7-6" /><rect
           rx="7.0739999"
           ry="7.0739999"
           y="670.17798"
           x="347.91299"
           height="97.434998"
           width="22.062"
           fill="#e85d03"
           id="rect8-2" /><rect
           rx="7.0739999"
           ry="7.0739999"
           y="670.354"
           x="181.08"
           height="32"
           width="21.555"
           fill="#9a3d00"
           id="rect9-9" /></g></g><text
       xml:space="preserve"
       transform="matrix(0.26458333,0,0,0.26458333,-0.00318433,-0.99350981)"
       id="text32"
       style="font-style:normal;font-variant:normal;font-weight:normal;font-stretch:normal;font-size:21.3333px;line-height:1.2;font-family:Cantarell;-inkscape-font-specification:'Cantarell, Normal';font-variant-ligatures:normal;font-variant-caps:normal;font-variant-numeric:normal;font-variant-east-asian:normal;text-decoration-color:#000000;letter-spacing:0px;word-spacing:0px;white-space:pre;shape-inside:url(#rect32);display:inline;fill:#454296;fill-opacity:1;stroke:#000000;stroke-width:4.42874;stroke-opacity:0;-inkscape-stroke:none"><tspan
         x="98.921875"
         y="180.7551"
         id="tspan1">Quisque condimentum pharetra magna non volutpat. </tspan><tspan
         x="98.921875"
         y="206.35506"
         id="tspan2">Vestibulum eget ligula blandit, dignissim nulla eu, </tspan><tspan
         x="98.921875"
         y="231.95502"
         id="tspan3">aliquet quam. Aliquam pharetra molestie euismod. In </tspan><tspan
         x="98.921875"
         y="257.55498"
         id="tspan4">vulputate velit vitae tortor dictum, eget rhoncus nunc </tspan><tspan
         x="98.921875"
         y="283.15494"
         id="tspan5">eleifend. Morbi vehicula et diam efficitur pellentesque. </tspan><tspan
         x="98.921875"
         y="315.6594"
         id="tspan7"><tspan
           dx="0 11.797304 11.263979 12.159977 4.6933098 5.9306526 12.09597 12.159973 12.09597 8.0426712 7.7013245 5.2479935 9.8986664 4.6933136 8.0426712 12.095963 12.095978 12.095963 9.962677 11.903992 9.8986664 4.6933136 18.901291 10.922638 7.7013245 7.7013245 5.2479858 9.8986816 5.4613342 4.6932983 15.999969 11.903992 5.9306641 5.9306641 10.922638 18.901276 4.6933289 11.903992 7.7013245 4.6932983 5.2480164 12.181274 9.8986816 11.903992 18.901276 4.6933289 12.181305 12.095947 8.0426941 7.7012939 7.7013245 5.2480164 7.7013245 12.095947 8.0426941 5.4613037 4.6933594 11.903992 5.930603 5.9306641 10.922668 18.901306 9.9626465 12.095947 8.0426636 12.181335 11.263977 8.0426636 4.6932983 5.9306641 11.263977 12.095947 4.6933594 11.263977 12.159973 11.263977 7.7012939 5.4613647 4.6932983 12.159973 5.2479858 12.159973 11.263977 12.096008 12.159973 11.903992 18.901245 4.6933594 18.901306 5.2479858 5.4613037 4.6932983 11.797302 11.264038 12.159973 4.6932983 12.181274 5.9306641 10.922607 9.9627075 11.263977 8.0426636 10.922607 7.701355 4.6932983 5.9306641 5.2479858 12.159973 11.903992 5.930603 10.922729 4.6932373 5.2480469 12.159912 4.6933594 12.095947 11.264038 12.159912 11.904053 11.263916 4.6933594 7.2532959 11.264038 8.0426025 18.901367 11.263916 12.095947 7.7012939 11.904053 18.901245 5.4614258 4.6932373 5.2480469 12.095947"
           id="tspan6">Sed lobortis rhoncus mattis. Nullam ut ipsum porttitor, ullamcorper leo eget, bibendum mi. Sed placerat ligula id neque fermentum, in </tspan></tspan></text><text
       xml:space="preserve"
       transform="matrix(0.26458333,0,0,0.26458333,1.2599318,48.891086)"
       id="text33"
       style="font-style:normal;font-variant:normal;font-weight:normal;font-stretch:normal;font-size:21.3333px;line-height:1.2;font-family:Sans;-inkscape-font-specification:'Sans, Normal';font-variant-ligatures:normal;font-variant-caps:normal;font-variant-numeric:normal;font-variant-east-asian:normal;text-decoration-color:#000000;letter-spacing:0px;word-spacing:0px;white-space:pre;shape-inside:url(#rect33);display:inline;fill:#454296;fill-opacity:1;stroke:#000000;stroke-width:4.42874;stroke-opacity:0;-inkscape-stroke:none"><tspan
         x="98.921875"
         y="181.00817"
         id="tspan8">Quisque condimentum pharetra magna non volutpat. Vestibulum </tspan><tspan
         x="98.921875"
         y="206.60813"
         id="tspan9">eget ligula blandit, dignissim nulla eu, aliquet quam. Aliquam </tspan><tspan
         x="98.921875"
         y="232.20809"
         id="tspan10">pharetra molestie euismod. In vulputate velit vitae tortor dictum, </tspan><tspan
         x="98.921875"
         y="257.80805"
         id="tspan11">eget rhoncus nunc eleifend. Morbi vehicula et diam efficitur </tspan><tspan
         x="98.921875"
         y="283.40801"
         id="tspan12">pellentesque. Sed lobortis rhoncus mattis. Nullam ut ipsum porttitor, </tspan><tspan
         x="98.921875"
         y="313.52965"
         id="tspan14"><tspan
           dx="0 13.18398 5.5039778 5.5039787 11.967999 19.946625 10.239975 12.906631 8.8106613 13.119972 12.03196 8.8106537 5.546669 5.5039749 12.031967 12.906631 5.5466614 12.031967 13.11998 12.031952 7.7013245 5.7173157 5.5466614 13.11998 5.5039825 13.119965 12.031982 13.18396 13.119995 13.18396 19.946625 5.5466614 19.946625 5.5039673 5.7173157 5.5466919 11.711975 12.031952 13.119965 5.5466614 13.119995 5.5039673 11.967987 10.23999 12.031952 8.3839722 11.968018 7.7013245 5.5466614 5.5039673 5.5039978 13.119934 13.184021 5.5039673 11.968018 5.5466309 5.5039673 13.119995 5.5466919 13.18396 12.031982 13.119934 13.184021 12.031921 5.5466919 7.338623 12.031982 8.8106689 19.946594 12.031982 13.18396 7.701355 13.18396 19.946594 5.7173462 5.5466309 5.5040283 13.18396"
           id="tspan13">ullamcorper leo eget, bibendum mi. Sed placerat ligula id neque fermentum, in </tspan></tspan></text><text
       xml:space="preserve"
       transform="matrix(0.26458333,0,0,0.26458333,1.3480315,99.375397)"
       id="text34"
       style="font-size:20px;line-height:1.2;font-family:Cantarell;-inkscape-font-specification:'Cantarell, Normal';text-decoration-color:#000000;letter-spacing:0px;word-spacing:0px;white-space:pre;shape-inside:url(#rect34);display:inline;fill:#454296;fill-opacity:1;stroke:#000000;stroke-width:4.42874;stroke-opacity:0;-inkscape-stroke:none"><tspan
         x="98.921875"
         y="179.59111"
         id="tspan15">Quisque condimentum pharetra magna non volutpat. </tspan><tspan
         x="98.921875"
         y="203.59111"
         id="tspan16">Vestibulum eget ligula blandit, dignissim nulla eu, aliquet </tspan><tspan
         x="98.921875"
         y="227.59111"
         id="tspan17">quam. Aliquam pharetra molestie euismod. In vulputate velit </tspan><tspan
         x="98.921875"
         y="251.59111"
         id="tspan18">vitae tortor dictum, eget rhoncus nunc eleifend. Morbi </tspan><tspan
         x="98.921875"
         y="275.59111"
         id="tspan19">vehicula et diam efficitur pellentesque. Sed lobortis rhoncus </tspan><tspan
         x="98.921875"
         y="308.8665"
         id="tspan21"><tspan
           dx="0 17.719994 10.239983 7.2200012 7.2200012 4.9200058 9.280014 5.1200104 4.3999863 15 11.160011 5.5599976 5.5599976 10.239983 17.720001 4.3999786 11.160019 7.2200012 4.3999786 4.9199982 11.419983 9.2800293 11.160004 17.720001 4.3999786 11.419983 11.339981 7.5400238 7.2200012 7.219986 4.9200134 7.2200012 11.339996 7.5400085 5.1200256 4.3999939 11.160004 5.5599976 5.5599976 10.23996 17.720001 9.3400269 11.339996 7.5400085 11.419983 10.559998 7.5400085 4.3999939 5.5599976 10.559998 11.339996 4.3999634 10.559998 11.400024 10.559998 7.2199707 5.1200256 4.3999939 11.399994 4.9200134 11.399963 10.559998 11.340027 11.399963 11.160034 17.719971 4.4000244 17.719971 4.9199829 5.1200562 4.3999634 11.059998 10.559998 11.399963 4.4000244 11.419983 5.5599976 10.23999 9.3399658 10.559998 7.5400391 10.23999 7.2199707 4.4000244 5.5599976 4.9199829 11.400024 11.159973 5.5599976 10.23999 4.3999634 4.9200439 11.399963 4.4000244 11.339966 10.559998 11.400024 11.159973 10.559998 4.4000244 6.7999878 10.559998 7.5400391 17.719971 10.559998 11.339966 7.2200317 11.159973 17.720032 5.1199951 4.3999634 4.9200439 11.339966"
           id="tspan20">mattis. Nullam ut ipsum porttitor, ullamcorper leo eget, bibendum mi. Sed placerat ligula id neque fermentum, in </tspan></tspan></text></g><g
     inkscape:groupmode="layer"
     id="layer2"
     inkscape:label="Layer 3"
     transform="matrix(3.3607304,0,0,3.360749,-829.26023,-253.97109)" /><g
     inkscape:label="Layer 1"
     inkscape:groupmode="layer"
     id="layer1"><g
       id="g2"
       transform="matrix(0.09821017,0,0,0.09821209,-27.666986,-31.25114)"
       style="fill:#429096;fill-opacity:1"><path
         d="m 403.89896,515.99105 h 22.788 c 0.22,4.472 1.896,7.822 5.026,10.053 3.35,2.236 7.817,3.352 13.404,3.352 4.02,0 7.482,-0.78 10.389,-2.346 2.68,-1.56 4.02,-3.687 4.02,-6.367 0,-4.02 -4.69,-7.037 -14.073,-9.048 -4.021,-0.67 -7.038,-1.34 -9.048,-2.01 -11.844,-2.9 -19.771,-6.368 -23.792,-10.39 -4.472,-4.02 -6.702,-9.383 -6.702,-16.085 0,-8.487 3.236,-15.524 9.718,-21.11 6.702,-5.138 15.415,-7.709 26.138,-7.709 11.614,0 20.887,2.571 27.814,7.708 6.477,5.587 9.938,12.85 10.388,21.781 h -14.41 c -4.246,0 -7.487,-1.896 -9.717,-5.696 a 677.67,677.67 0 0 1 -2.681,-2.68 c -2.681,-2.012 -6.367,-3.018 -11.06,-3.018 -4.47,0 -7.821,0.671 -10.052,2.011 -2.01,1.341 -3.016,3.352 -3.016,6.032 0,3.576 5.807,6.592 17.425,9.048 1.34,0.45 2.514,0.785 3.519,1.005 1.005,0.226 1.953,0.335 2.848,0.335 11.394,2.906 19.32,6.258 23.792,10.054 4.24,4.021 6.367,9.383 6.367,16.085 0,9.834 -3.576,17.426 -10.723,22.787 -6.702,4.917 -16.755,7.373 -30.16,7.373 -12.734,0 -22.232,-2.565 -28.484,-7.708 -6.482,-5.137 -9.718,-12.618 -9.718,-22.452 z m 153.345,2.011 h 16.755 c -2.461,9.383 -7.153,16.535 -14.075,21.446 -6.927,5.143 -15.64,7.708 -26.138,7.708 -12.734,0 -22.678,-4.132 -29.825,-12.399 -7.152,-8.042 -10.724,-19.546 -10.724,-34.516 0,-14.295 3.46,-25.469 10.389,-33.51 7.147,-8.264 17.09,-12.4 29.824,-12.4 13.404,0 23.793,4.021 31.165,12.063 7.147,8.27 10.724,19.771 10.724,34.517 v 3.687 c 0,1.12 -0.115,1.9 -0.335,2.346 h -57.974 c 0.22,6.927 1.895,12.063 5.026,15.415 2.9,3.576 7.257,5.361 13.069,5.361 3.796,0 7.037,-0.78 9.718,-2.346 0.67,-0.22 1.283,-0.612 1.843,-1.173 l 1.843,-1.843 c 0.22,-0.67 1.058,-1.56 2.513,-2.682 1.453,-1.115 3.52,-1.674 6.202,-1.674 z m -40.213,-26.139 h 34.18 c -0.45,-6.032 -2.01,-10.498 -4.69,-13.404 -2.906,-3.126 -7.037,-4.69 -12.4,-4.69 -4.916,0 -8.937,1.564 -12.063,4.69 -3.132,3.13 -4.807,7.597 -5.027,13.404 z m 68.563,24.128 h 22.788 c 0.22,4.472 1.896,7.822 5.026,10.053 3.35,2.236 7.817,3.352 13.404,3.352 4.02,0 7.482,-0.78 10.389,-2.346 2.68,-1.56 4.02,-3.687 4.02,-6.367 0,-4.02 -4.69,-7.037 -14.073,-9.048 -4.021,-0.67 -7.038,-1.34 -9.048,-2.01 -11.844,-2.9 -19.771,-6.368 -23.792,-10.39 -4.472,-4.02 -6.702,-9.383 -6.702,-16.085 0,-8.487 3.236,-15.524 9.718,-21.11 6.702,-5.138 15.415,-7.709 26.138,-7.709 11.614,0 20.887,2.571 27.814,7.708 6.477,5.587 9.938,12.85 10.388,21.781 h -14.41 c -4.247,0 -7.488,-1.896 -9.718,-5.696 a 677.67,677.67 0 0 1 -2.681,-2.68 c -2.681,-2.012 -6.367,-3.018 -11.06,-3.018 -4.47,0 -7.821,0.671 -10.052,2.011 -2.01,1.341 -3.016,3.352 -3.016,6.032 0,3.576 5.807,6.592 17.425,9.048 1.34,0.45 2.514,0.785 3.519,1.005 1.005,0.226 1.953,0.335 2.848,0.335 11.394,2.906 19.32,6.258 23.792,10.054 4.24,4.021 6.367,9.383 6.367,16.085 0,9.834 -3.576,17.426 -10.723,22.787 -6.702,4.917 -16.755,7.373 -30.16,7.373 -12.734,0 -22.232,-2.565 -28.484,-7.708 -6.482,-5.137 -9.718,-12.618 -9.718,-22.452 v -1.005 z m 83.642,66.686 v -19.437 h 4.357 c 2.01,0 3.35,-0.56 4.02,-1.676 0.89,-0.67 1.34,-2.126 1.34,-4.356 v -100.867 h 12.065 c 3.126,0 5.807,1.12 8.042,3.351 2.23,2.236 3.35,4.917 3.35,8.043 v 93.16 c 0,7.592 -2.235,13.18 -6.701,16.755 -4.472,3.352 -11.844,5.027 -22.117,5.027 z m 9.719,-152.474 h 12.064 c 3.126,0 5.807,1.121 8.042,3.352 2.23,2.235 3.35,4.916 3.35,8.042 v 7.038 h -23.457 v -18.432 z m 94.031,111.592 a 41.247,41.247 0 0 1 -14.912,4.523 c -5.252,0.555 -9.886,0.838 -13.907,0.838 -8.042,0 -15.08,-2.179 -21.112,-6.535 -6.032,-4.356 -9.048,-11.56 -9.048,-21.614 0,-9.383 2.733,-16.085 8.21,-20.106 5.472,-4.02 12.45,-6.702 20.944,-8.043 1.115,0 2.456,-0.167 4.02,-0.502 1.562,-0.335 3.352,-0.613 5.363,-0.838 9.828,-1.34 14.745,-4.24 14.745,-8.713 0,-3.352 -1.733,-5.529 -5.194,-6.534 -3.466,-1.006 -6.65,-1.509 -9.55,-1.509 -3.131,0 -5.922,0.45 -8.378,1.341 -2.461,0.896 -4.246,2.571 -5.362,5.026 h -22.452 c 0.89,-6.922 4.02,-12.619 9.383,-17.09 6.032,-5.137 14.629,-7.708 25.803,-7.708 12.509,0 21.892,2.126 28.149,6.367 6.477,4.472 9.718,10.724 9.718,18.766 v 30.495 c 0,8.938 -1.623,15.918 -4.86,20.944 -3.24,5.026 -7.093,8.66 -11.56,10.891 z m -5.361,-41.219 c -3.131,1.565 -7.487,3.016 -13.07,4.356 l -7.707,1.676 c -4.021,1.12 -6.927,2.57 -8.713,4.356 -1.565,2.461 -2.346,4.916 -2.346,7.372 0,3.351 1.005,6.032 3.016,8.042 2.01,1.791 4.912,2.682 8.713,2.682 6.252,0 11.168,-1.786 14.745,-5.362 3.57,-3.57 5.36,-8.487 5.36,-14.744 v -8.378 z"
         style="fill:#429096;fill-opacity:1"
         id="path1" /></g><path
       d="m 54.352944,11.000042 h 1.184808 c 0.307006,0 0.570307,0.104399 0.789806,0.312705 0.219009,0.2088 0.329103,0.466411 0.329103,0.773423 V 22.321736 H 54.352847 V 11.000042 Z m 3.517693,0 h 1.184809 c 0.306905,0 0.570207,0.109998 0.789805,0.329204 0.219008,0.219506 0.329101,0.482814 0.329101,0.789825 v 0.691217 h -2.303715 z m 0,2.567068 h 1.184809 c 0.306905,0 0.570207,0.109998 0.789805,0.32901 0.219008,0.2197 0.329101,0.483007 0.329101,0.790019 v 7.6355 h -2.303715 v -8.754627 z m 11.101384,8.754529 h -1.151904 c -0.329201,0 -0.598099,-0.103912 -0.806308,-0.312709 -0.208793,-0.208209 -0.312699,-0.477311 -0.312699,-0.80632 v -4.476019 c 0,-0.526513 -0.159493,-0.910228 -0.477204,-1.152027 -0.318201,-0.241014 -0.674704,-0.361912 -1.069703,-0.361912 -0.394808,0 -0.746108,0.120801 -1.053114,0.362009 -0.307593,0.241605 -0.460603,0.62532 -0.460603,1.15193 v 5.595048 H 61.336572 V 17.1875 c 0,-1.49184 0.389303,-2.490068 1.168306,-2.994977 0.778513,-0.504516 1.639818,-0.778625 2.583522,-0.82282 0.96521,0 1.853817,0.252403 2.665818,0.757021 0.811511,0.505005 1.217803,1.525135 1.217803,3.060776 z M 77.81192,13.56711 v 5.134134 c 0,1.558134 -0.406296,2.578462 -1.21771,3.060781 -0.812002,0.482906 -1.700506,0.724118 -2.665818,0.724118 -0.943601,-0.0442 -1.805003,-0.307011 -2.583516,-0.789922 -0.779099,-0.482318 -1.168304,-1.481037 -1.168304,-2.994977 V 13.56711 h 2.30381 v 5.595043 c 0,0.526416 0.153209,0.910621 0.460705,1.151931 0.307006,0.241601 0.658205,0.362008 1.053107,0.362008 0.394903,0 0.751309,-0.12031 1.069704,-0.362008 0.317711,-0.241208 0.477302,-0.625316 0.477302,-1.152028 v -4.475917 c 0,-0.307012 0.103808,-0.570319 0.312508,-0.789922 0.208302,-0.219012 0.477301,-0.329107 0.806401,-0.329107 z m 3.618946,0 v 3.225285 l 2.79722,-3.225285 h 2.764618 l -3.12662,3.356888 3.159424,5.397641 H 84.260987 L 82.648378,19.35956 c -0.329003,-0.592318 -0.614502,-0.844328 -0.855705,-0.756919 -0.241596,0.088 -0.362006,0.219501 -0.362006,0.394813 v 3.324083 H 79.126855 V 11.000042 h 1.184708 c 0.307006,0 0.570405,0.109998 0.789907,0.329204 0.219007,0.219506 0.329197,0.472109 0.329197,0.756924 v 1.48094 z m 6.192741,5.858351 h 2.237913 c 0.0216,0.439206 0.186207,0.768215 0.493704,0.987324 0.329002,0.219603 0.76771,0.329208 1.316409,0.329208 0.394805,0 0.73481,-0.07661 1.020207,-0.230406 0.263205,-0.153309 0.394805,-0.362105 0.394805,-0.625316 0,-0.39491 -0.460607,-0.691119 -1.382111,-0.888623 -0.394902,-0.0658 -0.691106,-0.1317 -0.888606,-0.197503 -1.163302,-0.284816 -1.941713,-0.625316 -2.336717,-1.020425 -0.439193,-0.394814 -0.658201,-0.921424 -0.658201,-1.579642 0,-0.833525 0.317808,-1.524644 0.954404,-2.073354 0.658205,-0.504516 1.51391,-0.757021 2.567115,-0.757021 1.140518,0 2.051316,0.252403 2.73162,0.757021 0.636106,0.54871 0.976013,1.261924 1.020206,2.139056 h -1.41521 c -0.416998,0 -0.735199,-0.186109 -0.954404,-0.559318 -0.0879,-0.08751 -0.175799,-0.175404 -0.263303,-0.263307 -0.263302,-0.197504 -0.625303,-0.296303 -1.086203,-0.296303 -0.4391,0 -0.768103,0.0658 -0.987207,0.197403 -0.197505,0.131802 -0.296301,0.329305 -0.296301,0.592515 0,0.351207 0.570405,0.647416 1.711409,0.888624 0.1316,0.04419 0.2469,0.0771 0.3456,0.0987 0.0988,0.02219 0.191807,0.03292 0.279801,0.03292 1.119007,0.285407 1.897423,0.614611 2.336718,0.987426 0.41641,0.394813 0.625303,0.921525 0.625303,1.579738 0,0.965821 -0.351199,1.711448 -1.053208,2.237961 -0.658205,0.482911 -1.645608,0.724119 -2.962017,0.724119 -1.25051,0 -2.183408,-0.251914 -2.797419,-0.757021 -0.636499,-0.504515 -0.954408,-1.239238 -0.954408,-2.205059 v -0.0987 z m 10.167992,2.106255 c -0.460705,-0.39491 -0.789902,-0.92663 -0.987406,-1.59614 -0.197403,-0.669025 -0.2962,-1.365837 -0.2962,-2.089956 0,-0.592317 0.0823,-1.184731 0.246901,-1.777246 0.164502,-0.592317 0.422204,-1.086225 0.773403,-1.481038 0.570308,-0.65812 1.305119,-1.047431 2.205019,-1.168231 0.899314,-0.120408 1.711414,-0.0494 2.435414,0.213905 0.83351,0.329204 1.44811,0.899916 1.84301,1.711444 0.37291,0.724017 0.55951,1.569037 0.55951,2.534262 0,0.702417 -0.0771,1.305634 -0.2304,1.810052 -0.1537,0.505103 -0.3512,0.932915 -0.59241,1.283631 -0.5265,0.724021 -1.1961,1.174025 -2.00751,1.349337 -0.72401,0.197407 -1.45381,0.213906 -2.188524,0.0494 -0.73539,-0.164704 -1.322104,-0.444413 -1.760807,-0.839421 z m 1.579707,-5.792352 c -0.4607,0.505006 -0.6695,1.256329 -0.6253,2.25446 0.0437,0.998617 0.2304,1.694944 0.5595,2.089854 0.1316,0.175798 0.36211,0.324002 0.69111,0.444214 0.329194,0.120801 0.663404,0.131603 1.003794,0.03288 0.33991,-0.0987 0.64181,-0.345703 0.90511,-0.740516 0.2633,-0.394813 0.4057,-1.031033 0.4278,-1.90885 0,-0.789922 -0.12649,-1.382239 -0.3785,-1.777247 -0.2524,-0.39491 -0.5429,-0.646925 -0.87211,-0.75702 -0.3291,-0.109503 -0.6582,-0.115201 -0.9874,-0.0164 -0.329004,0.0988 -0.570694,0.225301 -0.724004,0.37861 z m 15.118874,6.582275 h -2.30371 l -1.34931,-6.253265 -1.34932,6.253163 h -2.30381 l -2.40251,-8.754427 h 2.23791 l 1.38231,6.055757 1.25051,-6.055757 h 2.33671 l 1.18472,6.055757 1.21779,-5.26584 c 0.13161,-0.52661 0.48222,-0.789917 1.05311,-0.789917 h 1.44802 z m 8.76938,-0.362013 a 4.0513659,4.0514452 0 0 1 -1.46471,0.444311 c -0.5156,0.05451 -0.9709,0.0823 -1.3657,0.0823 -0.78991,0 -1.48101,-0.214105 -2.07342,-0.641816 -0.5924,-0.427812 -0.88861,-1.135431 -0.88861,-2.122756 0,-0.921524 0.26842,-1.579743 0.80631,-1.974653 0.53741,-0.39491 1.22282,-0.658217 2.05692,-0.789922 0.1095,0 0.2412,-0.0164 0.3949,-0.0493 0.1533,-0.03288 0.3291,-0.0602 0.52651,-0.0823 0.9652,-0.1317 1.4481,-0.416517 1.4481,-0.855721 0,-0.329208 -0.17019,-0.543115 -0.5101,-0.641719 -0.3404,-0.0988 -0.653,-0.148301 -0.93791,-0.148301 -0.30759,0 -0.58169,0.0442 -0.8228,0.131802 -0.2416,0.088 -0.4171,0.252404 -0.5266,0.493616 h -2.20502 c 0.0875,-0.679827 0.3949,-1.239437 0.9215,-1.678444 0.59241,-0.504516 1.43682,-0.757021 2.53422,-0.757021 1.22861,0 2.15002,0.208797 2.76462,0.625316 0.636,0.439207 0.95431,1.053226 0.95431,1.843047 v 2.994981 c 0,0.877816 -0.1594,1.56334 -0.47721,2.056952 -0.31839,0.493615 -0.69689,0.850518 -1.13531,1.06953 z m -0.52679,-4.048105 c -0.30741,0.153703 -0.73531,0.296209 -1.28351,0.427812 l -0.75691,0.164602 c -0.39481,0.109998 -0.6804,0.252408 -0.85571,0.427812 -0.1537,0.241601 -0.2304,0.482814 -0.2304,0.724021 0,0.32901 0.0987,0.592415 0.29621,0.789821 0.19749,0.175798 0.4824,0.263405 0.8557,0.263405 0.61401,0 1.09701,-0.175409 1.44811,-0.526615 0.35061,-0.350614 0.52651,-0.833525 0.52651,-1.448038 z"
       style="fill:#323f49;fill-opacity:1;stroke-width:0.0982111"
       id="path2" /><g
       aria-label="25 kwietnia 2020 | Wrocław, Polska"
       style="font-style:normal;font-weight:400;font-size:5px;line-height:125%;font-family:sans-serif;letter-spacing:0;word-spacing:0;display:inline;fill:#000000;fill-opacity:1;stroke:none;stroke-width:1px;stroke-linecap:butt;stroke-linejoin:miter;stroke-opacity:1"
       id="g24"
       transform="matrix(0.23238276,0,0,0.23238276,15.55248,78.514308)"><g
         aria-label="22-23 kwietnia 2023 | Wrocław, Polska"
         style="font-size:40px;white-space:pre;shape-inside:url(#a);shape-padding:0.0876788;fill:#ff2a2a"
         transform="translate(-0.698,-23.509)"
         id="g23" /></g></g></svg>
